<?xml version="1.0" encoding="utf-8"?>
<!-- Generator: Adobe Illustrator 27.5.0, SVG Export Plug-In . SVG Version: 6.00 Build 0)  -->
<svg version="1.1" xmlns="http://www.w3.org/2000/svg" xmlns:xlink="http://www.w3.org/1999/xlink" x="0px" y="0px"
	 viewBox="0 0 500 500" style="enable-background:new 0 0 500 500;" xml:space="preserve">
<g id="Background_Complete">
	<g>
		<rect y="382.398" style="fill:#EBEBEB;" width="500" height="0.25"/>
		<rect x="416.779" y="398.494" style="fill:#EBEBEB;" width="33.122" height="0.25"/>
		<rect x="322.527" y="401.208" style="fill:#EBEBEB;" width="8.693" height="0.25"/>
		<rect x="396.586" y="389.208" style="fill:#EBEBEB;" width="19.192" height="0.25"/>
		<rect x="52.459" y="390.888" style="fill:#EBEBEB;" width="43.193" height="0.25"/>
		<rect x="104.556" y="390.888" style="fill:#EBEBEB;" width="6.333" height="0.25"/>
		<rect x="131.471" y="395.111" style="fill:#EBEBEB;" width="93.676" height="0.25"/>
		<path style="fill:#EBEBEB;" d="M237.014,337.8H43.915c-3.147,0-5.708-2.561-5.708-5.708V60.66c0-3.147,2.561-5.708,5.708-5.708
			h193.099c3.146,0,5.707,2.561,5.707,5.708v271.432C242.721,335.239,240.16,337.8,237.014,337.8z M43.915,55.203
			c-3.01,0-5.458,2.448-5.458,5.458v271.432c0,3.01,2.448,5.458,5.458,5.458h193.099c3.009,0,5.457-2.448,5.457-5.458V60.66
			c0-3.009-2.448-5.458-5.457-5.458H43.915z"/>
		<path style="fill:#EBEBEB;" d="M453.31,337.8H260.212c-3.147,0-5.707-2.561-5.707-5.708V60.66c0-3.147,2.561-5.708,5.707-5.708
			H453.31c3.148,0,5.708,2.561,5.708,5.708v271.432C459.019,335.239,456.458,337.8,453.31,337.8z M260.212,55.203
			c-3.009,0-5.457,2.448-5.457,5.458v271.432c0,3.01,2.448,5.458,5.457,5.458H453.31c3.01,0,5.458-2.448,5.458-5.458V60.66
			c0-3.009-2.448-5.458-5.458-5.458H260.212z"/>
	</g>
	<g>
		<path style="fill:#F0F0F0;" d="M237.039,181.107v17.565l9.045,0.853c1.221,5.888,3.554,11.362,6.745,16.225l-5.81,7.017
			l12.421,12.421l7.018-5.811c4.862,3.192,10.337,5.526,16.225,6.746l0.852,9.045h17.566l0.852-9.045
			c5.888-1.221,11.363-3.554,16.225-6.746l7.018,5.811l12.421-12.421l-5.81-7.018c3.191-4.863,5.524-10.336,6.745-16.224
			l9.045-0.853v-17.565l-9.045-0.853c-1.221-5.889-3.554-11.363-6.745-16.225l5.81-7.018l-12.421-12.421l-7.018,5.809
			c-4.862-3.19-10.337-5.524-16.225-6.745l-0.852-9.045h-17.566l-0.852,9.045c-5.888,1.221-11.363,3.555-16.225,6.745l-7.018-5.809
			l-12.421,12.421l5.81,7.017c-3.191,4.862-5.525,10.337-6.745,16.226L237.039,181.107z M292.318,166.109
			c13.134,0,23.78,10.647,23.78,23.78c0,13.133-10.647,23.78-23.78,23.78c-13.133,0-23.78-10.647-23.78-23.78
			C268.538,176.756,279.185,166.109,292.318,166.109z"/>
		<path style="fill:#F5F5F5;" d="M207.361,259.712l5.042,4.175l8.925-8.925l-4.174-5.042c2.292-3.493,3.969-7.428,4.846-11.658
			l6.499-0.612V225.03L222,224.417c-0.877-4.231-2.554-8.164-4.846-11.657l4.174-5.042l-8.925-8.925l-5.042,4.174
			c-3.494-2.292-7.428-3.968-11.658-4.847l-0.612-6.499l-12.621,0.002l-0.611,6.497c-4.231,0.878-8.165,2.555-11.658,4.847
			l-5.042-4.174l-8.925,8.925l4.175,5.042c-2.293,3.492-3.97,7.426-4.847,11.657l-6.497,0.613v12.621l6.497,0.612
			c0.878,4.23,2.554,8.164,4.847,11.658l-4.175,5.042l8.925,8.925l5.042-4.175c3.493,2.293,7.427,3.969,11.658,4.847l0.611,6.498
			h12.621l0.612-6.499C199.934,263.682,203.867,262.005,207.361,259.712z M171.695,231.34c0-9.436,7.649-17.085,17.086-17.085
			c9.435,0,17.085,7.649,17.085,17.085c0,9.436-7.65,17.086-17.085,17.086C179.344,248.426,171.695,240.776,171.695,231.34z"/>
		<path style="fill:#FAFAFA;" d="M263.453,345.203c5.037-1.044,9.72-3.042,13.88-5.771l6.003,4.97l10.626-10.625l-4.971-6.005
			c2.729-4.158,4.726-8.841,5.77-13.879l7.737-0.728V298.14l-7.737-0.729c-1.044-5.037-3.041-9.72-5.77-13.879l4.971-6.004
			l-10.626-10.624l-6.003,4.969c-4.16-2.729-8.843-4.726-13.88-5.771l-0.728-7.737h-15.027l-0.729,7.737
			c-5.037,1.045-9.719,3.042-13.879,5.771l-6.003-4.969l-10.625,10.624l4.969,6.004c-2.729,4.159-4.725,8.842-5.769,13.879
			l-7.737,0.729v15.026l7.737,0.728c1.045,5.038,3.041,9.721,5.769,13.88l-4.969,6.003l10.625,10.625l6.003-4.97
			c4.159,2.729,8.842,4.726,13.879,5.771l0.729,7.737h15.027L263.453,345.203z M234.87,305.652c0-11.233,9.107-20.341,20.342-20.341
			c11.235,0,20.342,9.108,20.342,20.341c0,11.235-9.107,20.342-20.342,20.342C243.977,325.994,234.87,316.887,234.87,305.652z"/>
		<g>
			
				<rect x="92.092" y="160.024" transform="matrix(0.9908 0.1354 -0.1354 0.9908 25.8819 -13.9293)" style="fill:#F5F5F5;" width="46.431" height="46.431"/>
			
				<line style="fill:none;stroke:#E0E0E0;stroke-width:3;stroke-miterlimit:10;" x1="102.031" y1="171.199" x2="131.983" y2="175.294"/>
			
				<line style="fill:none;stroke:#E0E0E0;stroke-width:3;stroke-miterlimit:10;" x1="100.756" y1="180.529" x2="130.708" y2="184.624"/>
			
				<line style="fill:none;stroke:#E0E0E0;stroke-width:3;stroke-miterlimit:10;" x1="99.437" y1="190.176" x2="117.075" y2="192.588"/>
		</g>
		<g>
			
				<rect x="352.679" y="112.31" transform="matrix(1 -0.0036 0.0036 1 -0.4824 1.3456)" style="fill:#F0F0F0;" width="46.431" height="46.431"/>
			
				<line style="fill:none;stroke:#E0E0E0;stroke-width:3;stroke-miterlimit:10;" x1="361.074" y1="125.448" x2="391.304" y2="125.339"/>
			
				<line style="fill:none;stroke:#E0E0E0;stroke-width:3;stroke-miterlimit:10;" x1="361.108" y1="134.864" x2="391.338" y2="134.756"/>
			
				<line style="fill:none;stroke:#E0E0E0;stroke-width:3;stroke-miterlimit:10;" x1="361.142" y1="144.601" x2="378.944" y2="144.537"/>
		</g>
		<g>
			
				<rect x="383.563" y="228.223" transform="matrix(0.9921 -0.1257 0.1257 0.9921 -28.3806 53.1289)" style="fill:#F5F5F5;" width="46.431" height="46.431"/>
			
				<line style="fill:none;stroke:#E0E0E0;stroke-width:3;stroke-miterlimit:10;" x1="390.838" y1="243.246" x2="420.829" y2="239.446"/>
			
				<line style="fill:none;stroke:#E0E0E0;stroke-width:3;stroke-miterlimit:10;" x1="392.022" y1="252.588" x2="422.012" y2="248.788"/>
			
				<line style="fill:none;stroke:#E0E0E0;stroke-width:3;stroke-miterlimit:10;" x1="393.246" y1="262.248" x2="410.907" y2="260.01"/>
		</g>
		<g>
			
				<rect x="133.593" y="300.331" transform="matrix(1 -0.0036 0.0036 1 -1.1564 0.563)" style="fill:#F0F0F0;" width="46.431" height="46.431"/>
			
				<line style="fill:none;stroke:#E0E0E0;stroke-width:3;stroke-miterlimit:10;" x1="141.988" y1="313.468" x2="172.218" y2="313.36"/>
			
				<line style="fill:none;stroke:#E0E0E0;stroke-width:3;stroke-miterlimit:10;" x1="142.022" y1="322.885" x2="172.252" y2="322.777"/>
			
				<line style="fill:none;stroke:#E0E0E0;stroke-width:3;stroke-miterlimit:10;" x1="142.057" y1="332.621" x2="159.859" y2="332.558"/>
		</g>
		<g>
			
				<rect x="338.66" y="323.039" transform="matrix(1 -0.0036 0.0036 1 -1.2364 1.2968)" style="fill:#F0F0F0;" width="46.431" height="46.431"/>
			
				<line style="fill:none;stroke:#E0E0E0;stroke-width:3;stroke-miterlimit:10;" x1="347.055" y1="336.176" x2="377.285" y2="336.068"/>
			
				<line style="fill:none;stroke:#E0E0E0;stroke-width:3;stroke-miterlimit:10;" x1="347.089" y1="345.593" x2="377.319" y2="345.485"/>
			
				<line style="fill:none;stroke:#E0E0E0;stroke-width:3;stroke-miterlimit:10;" x1="347.123" y1="355.329" x2="364.926" y2="355.266"/>
		</g>
		<g>
			
				<rect x="148.48" y="113.711" transform="matrix(0.9762 -0.2168 0.2168 0.9762 -25.604 40.4842)" style="fill:#F0F0F0;" width="46.431" height="46.431"/>
			
				<line style="fill:none;stroke:#E0E0E0;stroke-width:3;stroke-miterlimit:10;" x1="155.066" y1="130.241" x2="184.578" y2="123.687"/>
			
				<line style="fill:none;stroke:#E0E0E0;stroke-width:3;stroke-miterlimit:10;" x1="157.108" y1="139.434" x2="186.62" y2="132.88"/>
			
				<line style="fill:none;stroke:#E0E0E0;stroke-width:3;stroke-miterlimit:10;" x1="159.219" y1="148.939" x2="176.598" y2="145.079"/>
		</g>
		<g>
			<polygon style="fill:#E0E0E0;" points="99.24,162.096 98.408,162.096 97.264,156.802 100.384,156.802 			"/>
			<ellipse style="fill:#E6E6E6;" cx="98.824" cy="157.462" rx="4.225" ry="3.326"/>
		</g>
		<g>
			<polygon style="fill:#E0E0E0;" points="184.074,115.83 183.242,115.83 182.098,110.536 185.218,110.536 			"/>
			<ellipse style="fill:#E6E6E6;" cx="183.658" cy="111.195" rx="4.225" ry="3.326"/>
		</g>
		<g>
			<polygon style="fill:#E0E0E0;" points="375.137,117.163 374.305,117.163 373.161,111.869 376.281,111.869 			"/>
			<ellipse style="fill:#E6E6E6;" cx="374.721" cy="112.529" rx="4.225" ry="3.326"/>
		</g>
		<g>
			<polygon style="fill:#E0E0E0;" points="422.604,232.154 421.772,232.154 420.629,226.86 423.748,226.86 			"/>
			<ellipse style="fill:#E6E6E6;" cx="422.188" cy="227.519" rx="4.225" ry="3.326"/>
		</g>
		<g>
			<polygon style="fill:#E0E0E0;" points="362.586,328.266 361.754,328.266 360.61,322.972 363.73,322.972 			"/>
			<ellipse style="fill:#E6E6E6;" cx="362.17" cy="323.631" rx="4.225" ry="3.326"/>
		</g>
		<g>
			<polygon style="fill:#E0E0E0;" points="155.482,304.466 154.65,304.466 153.507,299.172 156.626,299.172 			"/>
			<ellipse style="fill:#E6E6E6;" cx="155.066" cy="299.831" rx="4.225" ry="3.326"/>
		</g>
	</g>
</g>
<g id="Background_Simple" style="display:none;">
	<g style="display:inline;">
		<path style="fill:#407BFF;" d="M245.802,88.709c-77.751,34.982-7.17,97.329-52.063,131.285s-166.954-5.299-120.423,82.875
			c54.657,103.573,294.004,89.19,345.611-37.848C470.533,137.982,323.553,53.727,245.802,88.709z"/>
		<path style="opacity:0.9;fill:#FFFFFF;" d="M245.802,88.709c-77.751,34.982-7.17,97.329-52.063,131.285
			s-166.954-5.299-120.423,82.875c54.657,103.573,294.004,89.19,345.611-37.848C470.533,137.982,323.553,53.727,245.802,88.709z"/>
	</g>
</g>
<g id="Shadow_1_">
	<ellipse id="_x3C_Path_x3E__359_" style="fill:#F5F5F5;" cx="250" cy="416.238" rx="193.889" ry="11.323"/>
</g>
<g id="Notebook">
	<g>
		<g>
			<path style="fill:#263238;" d="M143.668,248.839c0-6.586,4.335-11.945,9.663-11.945c5.328,0,9.662,5.358,9.662,11.945
				c0,6.587-4.335,11.945-9.662,11.945C148.003,260.785,143.668,255.426,143.668,248.839z M145.668,248.839
				c0,5.484,3.438,9.945,7.663,9.945c4.225,0,7.662-4.461,7.662-9.945c0-5.483-3.437-9.945-7.662-9.945
				C149.106,238.895,145.668,243.356,145.668,248.839z"/>
		</g>
		<g>
			<path style="fill:#263238;" d="M124.656,248.839c0-6.586,4.335-11.945,9.663-11.945c5.328,0,9.662,5.358,9.662,11.945
				c0,6.587-4.335,11.945-9.662,11.945C128.991,260.785,124.656,255.426,124.656,248.839z M126.656,248.839
				c0,5.484,3.438,9.945,7.663,9.945s7.662-4.461,7.662-9.945c0-5.483-3.437-9.945-7.662-9.945S126.656,243.356,126.656,248.839z"/>
		</g>
		<g>
			<path style="fill:#263238;" d="M105.645,248.839c0-6.586,4.334-11.945,9.663-11.945c5.328,0,9.662,5.358,9.662,11.945
				c0,6.587-4.335,11.945-9.662,11.945C109.979,260.785,105.645,255.426,105.645,248.839z M107.645,248.839
				c0,5.484,3.438,9.945,7.663,9.945c4.225,0,7.662-4.461,7.662-9.945c0-5.483-3.437-9.945-7.662-9.945
				C111.082,238.895,107.645,243.356,107.645,248.839z"/>
		</g>
		<g>
			<path style="fill:#263238;" d="M86.632,248.839c0-6.586,4.335-11.945,9.663-11.945c5.328,0,9.662,5.358,9.662,11.945
				c0,6.587-4.334,11.945-9.662,11.945C90.967,260.785,86.632,255.426,86.632,248.839z M88.632,248.839
				c0,5.484,3.438,9.945,7.663,9.945c4.225,0,7.662-4.461,7.662-9.945c0-5.483-3.437-9.945-7.662-9.945
				C92.07,238.895,88.632,243.356,88.632,248.839z"/>
		</g>
		<g>
			<path style="fill:#263238;" d="M162.68,248.839c0-6.586,4.334-11.945,9.663-11.945c5.328,0,9.662,5.358,9.662,11.945
				c0,6.587-4.335,11.945-9.662,11.945C167.015,260.785,162.68,255.426,162.68,248.839z M164.68,248.839
				c0,5.484,3.438,9.945,7.663,9.945s7.662-4.461,7.662-9.945c0-5.483-3.437-9.945-7.662-9.945S164.68,243.356,164.68,248.839z"/>
		</g>
		
			<rect x="74.051" y="249.068" transform="matrix(-1 -1.224647e-16 1.224647e-16 -1 267.187 662.8553)" style="fill:#263238;" width="119.084" height="164.719"/>
		
			<rect x="74.051" y="249.068" transform="matrix(-1 -1.224647e-16 1.224647e-16 -1 267.187 662.8553)" style="opacity:0.7;fill:#FFFFFF;" width="119.084" height="164.719"/>
		
			<rect x="84.79" y="249.068" transform="matrix(-1 -1.224647e-16 1.224647e-16 -1 277.926 662.8553)" style="opacity:0.6;fill:#FFFFFF;" width="108.345" height="164.719"/>
		<polygon style="opacity:0.2;enable-background:new    ;" points="77.627,413.787 77.127,259.849 76.627,413.787 		"/>
		<polygon style="opacity:0.2;enable-background:new    ;" points="82.613,413.787 82.113,269.439 81.613,413.787 		"/>
		<polygon style="opacity:0.2;enable-background:new    ;" points="79.119,249.193 79.619,364.922 80.119,249.193 		"/>
		<g>
			<path style="fill:#263238;" d="M175.219,256.901c0,1.877,1.255,3.399,2.804,3.399c1.549,0,2.804-1.522,2.804-3.399
				c0-1.877-1.255-3.399-2.804-3.399C176.474,253.502,175.219,255.024,175.219,256.901z"/>
			<g>
				<path style="fill:#263238;" d="M178.195,257.908c0.281,0,0.56-0.118,0.758-0.347c1.94-2.248,3.052-5.427,3.052-8.722
					c0-6.586-4.335-11.945-9.662-11.945c-3.926,0-7.432,2.892-8.93,7.367c-0.175,0.523,0.107,1.09,0.631,1.266
					c0.524,0.174,1.091-0.107,1.266-0.631c1.221-3.646,3.981-6.002,7.033-6.002c4.225,0,7.662,4.461,7.662,9.945
					c0,2.823-0.936,5.525-2.566,7.416c-0.36,0.418-0.314,1.05,0.104,1.411C177.732,257.828,177.964,257.908,178.195,257.908z"/>
			</g>
			<g style="opacity:0.4;enable-background:new    ;">
				<path style="fill:#FFFFFF;" d="M178.195,257.908c0.281,0,0.56-0.118,0.758-0.347c1.94-2.248,3.052-5.427,3.052-8.722
					c0-6.586-4.335-11.945-9.662-11.945c-3.926,0-7.432,2.892-8.93,7.367c-0.175,0.523,0.107,1.09,0.631,1.266
					c0.524,0.174,1.091-0.107,1.266-0.631c1.221-3.646,3.981-6.002,7.033-6.002c4.225,0,7.662,4.461,7.662,9.945
					c0,2.823-0.936,5.525-2.566,7.416c-0.36,0.418-0.314,1.05,0.104,1.411C177.732,257.828,177.964,257.908,178.195,257.908z"/>
			</g>
		</g>
		<g>
			<path style="fill:#263238;" d="M156.206,256.901c0,1.877,1.256,3.399,2.804,3.399c1.549,0,2.804-1.522,2.804-3.399
				c0-1.877-1.256-3.399-2.804-3.399C157.462,253.502,156.206,255.024,156.206,256.901z"/>
			<g>
				<path style="fill:#263238;" d="M159.184,257.908c0.281,0,0.56-0.118,0.758-0.347c1.939-2.248,3.052-5.427,3.052-8.722
					c0-6.586-4.335-11.945-9.662-11.945c-3.926,0-7.432,2.892-8.93,7.367c-0.175,0.523,0.107,1.09,0.631,1.266
					c0.524,0.174,1.091-0.107,1.266-0.631c1.221-3.646,3.981-6.002,7.033-6.002c4.225,0,7.662,4.461,7.662,9.945
					c0,2.823-0.936,5.525-2.566,7.416c-0.36,0.418-0.314,1.05,0.104,1.411C158.72,257.828,158.952,257.908,159.184,257.908z"/>
			</g>
			<g style="opacity:0.4;enable-background:new    ;">
				<path style="fill:#FFFFFF;" d="M159.184,257.908c0.281,0,0.56-0.118,0.758-0.347c1.939-2.248,3.052-5.427,3.052-8.722
					c0-6.586-4.335-11.945-9.662-11.945c-3.926,0-7.432,2.892-8.93,7.367c-0.175,0.523,0.107,1.09,0.631,1.266
					c0.524,0.174,1.091-0.107,1.266-0.631c1.221-3.646,3.981-6.002,7.033-6.002c4.225,0,7.662,4.461,7.662,9.945
					c0,2.823-0.936,5.525-2.566,7.416c-0.36,0.418-0.314,1.05,0.104,1.411C158.72,257.828,158.952,257.908,159.184,257.908z"/>
			</g>
		</g>
		<g>
			<path style="fill:#263238;" d="M137.195,256.901c0,1.877,1.255,3.399,2.804,3.399c1.549,0,2.804-1.522,2.804-3.399
				c0-1.877-1.255-3.399-2.804-3.399C138.45,253.502,137.195,255.024,137.195,256.901z"/>
			<g>
				<path style="fill:#263238;" d="M140.172,257.908c0.281,0,0.56-0.118,0.758-0.347c1.939-2.248,3.052-5.427,3.052-8.722
					c0-6.586-4.335-11.945-9.662-11.945c-3.926,0-7.432,2.892-8.93,7.367c-0.175,0.523,0.107,1.09,0.631,1.266
					c0.524,0.174,1.091-0.107,1.266-0.631c1.221-3.646,3.982-6.002,7.033-6.002c4.225,0,7.662,4.461,7.662,9.945
					c0,2.823-0.936,5.525-2.566,7.416c-0.36,0.418-0.314,1.05,0.104,1.411C139.708,257.828,139.94,257.908,140.172,257.908z"/>
			</g>
			<g style="opacity:0.4;enable-background:new    ;">
				<path style="fill:#FFFFFF;" d="M140.172,257.908c0.281,0,0.56-0.118,0.758-0.347c1.939-2.248,3.052-5.427,3.052-8.722
					c0-6.586-4.335-11.945-9.662-11.945c-3.926,0-7.432,2.892-8.93,7.367c-0.175,0.523,0.107,1.09,0.631,1.266
					c0.524,0.174,1.091-0.107,1.266-0.631c1.221-3.646,3.982-6.002,7.033-6.002c4.225,0,7.662,4.461,7.662,9.945
					c0,2.823-0.936,5.525-2.566,7.416c-0.36,0.418-0.314,1.05,0.104,1.411C139.708,257.828,139.94,257.908,140.172,257.908z"/>
			</g>
		</g>
		<g>
			<path style="fill:#263238;" d="M118.183,256.901c0,1.877,1.256,3.399,2.804,3.399c1.549,0,2.804-1.522,2.804-3.399
				c0-1.877-1.256-3.399-2.804-3.399C119.438,253.502,118.183,255.024,118.183,256.901z"/>
			<g>
				<path style="fill:#263238;" d="M121.16,257.908c0.281,0,0.56-0.118,0.758-0.347c1.94-2.248,3.052-5.427,3.052-8.722
					c0-6.586-4.335-11.945-9.662-11.945c-3.926,0-7.432,2.892-8.93,7.367c-0.175,0.523,0.107,1.09,0.631,1.266
					c0.524,0.174,1.091-0.107,1.266-0.631c1.221-3.646,3.981-6.002,7.033-6.002c4.225,0,7.662,4.461,7.662,9.945
					c0,2.823-0.936,5.525-2.566,7.416c-0.36,0.418-0.314,1.05,0.104,1.411C120.696,257.828,120.928,257.908,121.16,257.908z"/>
			</g>
			<g style="opacity:0.4;enable-background:new    ;">
				<path style="fill:#FFFFFF;" d="M121.16,257.908c0.281,0,0.56-0.118,0.758-0.347c1.94-2.248,3.052-5.427,3.052-8.722
					c0-6.586-4.335-11.945-9.662-11.945c-3.926,0-7.432,2.892-8.93,7.367c-0.175,0.523,0.107,1.09,0.631,1.266
					c0.524,0.174,1.091-0.107,1.266-0.631c1.221-3.646,3.981-6.002,7.033-6.002c4.225,0,7.662,4.461,7.662,9.945
					c0,2.823-0.936,5.525-2.566,7.416c-0.36,0.418-0.314,1.05,0.104,1.411C120.696,257.828,120.928,257.908,121.16,257.908z"/>
			</g>
		</g>
		<g>
			<path style="fill:#263238;" d="M99.171,256.901c0,1.877,1.256,3.399,2.804,3.399c1.549,0,2.804-1.522,2.804-3.399
				c0-1.877-1.256-3.399-2.804-3.399C100.426,253.502,99.171,255.024,99.171,256.901z"/>
			<g>
				<path style="fill:#263238;" d="M102.148,257.908c0.281,0,0.56-0.118,0.758-0.347c1.939-2.248,3.052-5.427,3.052-8.722
					c0-6.586-4.334-11.945-9.662-11.945c-3.926,0-7.432,2.892-8.93,7.367c-0.175,0.523,0.107,1.09,0.631,1.266
					c0.524,0.174,1.091-0.107,1.266-0.631c1.221-3.646,3.981-6.002,7.033-6.002c4.225,0,7.662,4.461,7.662,9.945
					c0,2.823-0.936,5.525-2.566,7.416c-0.36,0.418-0.314,1.05,0.104,1.411C101.684,257.828,101.916,257.908,102.148,257.908z"/>
			</g>
			<g style="opacity:0.4;enable-background:new    ;">
				<path style="fill:#FFFFFF;" d="M102.148,257.908c0.281,0,0.56-0.118,0.758-0.347c1.939-2.248,3.052-5.427,3.052-8.722
					c0-6.586-4.334-11.945-9.662-11.945c-3.926,0-7.432,2.892-8.93,7.367c-0.175,0.523,0.107,1.09,0.631,1.266
					c0.524,0.174,1.091-0.107,1.266-0.631c1.221-3.646,3.981-6.002,7.033-6.002c4.225,0,7.662,4.461,7.662,9.945
					c0,2.823-0.936,5.525-2.566,7.416c-0.36,0.418-0.314,1.05,0.104,1.411C101.684,257.828,101.916,257.908,102.148,257.908z"/>
			</g>
		</g>
		<g>
			<rect x="107.698" y="324.851" style="fill:#407BFF;" width="8.381" height="14.289"/>
			<rect x="121.274" y="314.452" style="fill:#407BFF;" width="8.381" height="24.688"/>
			<rect x="134.851" y="318.352" style="fill:#407BFF;" width="8.381" height="20.788"/>
			<rect x="148.428" y="307.953" style="fill:#407BFF;" width="8.381" height="31.187"/>
			<rect x="162.004" y="297.554" style="fill:#407BFF;" width="8.38" height="41.586"/>
			<rect x="107.698" y="324.851" style="opacity:0.5;fill:#FFFFFF;" width="8.381" height="14.289"/>
			<rect x="121.274" y="314.452" style="opacity:0.5;fill:#FFFFFF;" width="8.381" height="24.688"/>
			<rect x="134.851" y="318.352" style="opacity:0.5;fill:#FFFFFF;" width="8.381" height="20.788"/>
			<rect x="148.428" y="307.953" style="opacity:0.5;fill:#FFFFFF;" width="8.381" height="31.187"/>
			<rect x="162.004" y="297.554" style="opacity:0.5;fill:#FFFFFF;" width="8.38" height="41.586"/>
			<rect x="96.189" y="337.162" style="fill:#263238;" width="85.37" height="3.956"/>
			<polyline style="fill:none;stroke:#407BFF;stroke-width:2.9675;stroke-miterlimit:10;" points="98.871,326.631 125.465,305.467 
				139.041,313.347 176.419,281.485 			"/>
			<polygon style="fill:#407BFF;" points="178.601,279.646 173.039,280.508 176.958,284.693 			"/>
		</g>
		<g style="opacity:0.3;">
			<path d="M144.605,353.972H96.293c-0.552,0-1-0.447-1-1c0-0.553,0.448-1,1-1h48.312c0.552,0,1,0.447,1,1
				C145.605,353.525,145.157,353.972,144.605,353.972z"/>
		</g>
		<g style="opacity:0.3;">
			<g>
				<path d="M181.915,362.91h-78.728c-0.552,0-1-0.447-1-1c0-0.553,0.448-1,1-1h78.728c0.552,0,1,0.447,1,1
					C182.915,362.463,182.467,362.91,181.915,362.91z"/>
			</g>
			<g>
				<path d="M182.026,367.921H96.293c-0.552,0-1-0.447-1-1c0-0.553,0.448-1,1-1h85.732c0.552,0,1,0.447,1,1
					C183.026,367.474,182.578,367.921,182.026,367.921z"/>
			</g>
			<g>
				<path d="M182.136,372.933H96.404c-0.552,0-1-0.447-1-1s0.448-1,1-1h85.732c0.552,0,1,0.447,1,1S182.688,372.933,182.136,372.933
					z"/>
			</g>
			<g>
				<path d="M168.238,377.944H96.513c-0.552,0-1-0.447-1-1c0-0.553,0.448-1,1-1h71.724c0.552,0,1,0.447,1,1
					C169.238,377.496,168.79,377.944,168.238,377.944z"/>
			</g>
		</g>
		<g style="opacity:0.3;">
			<g>
				<path d="M181.915,386.926h-78.728c-0.552,0-1-0.447-1-1c0-0.553,0.448-1,1-1h78.728c0.552,0,1,0.447,1,1
					C182.915,386.478,182.467,386.926,181.915,386.926z"/>
			</g>
			<g>
				<path d="M182.026,391.936H96.293c-0.552,0-1-0.447-1-1c0-0.553,0.448-1,1-1h85.732c0.552,0,1,0.447,1,1
					C183.026,391.489,182.578,391.936,182.026,391.936z"/>
			</g>
			<g>
				<path d="M182.136,396.948H96.404c-0.552,0-1-0.447-1-1c0-0.553,0.448-1,1-1h85.732c0.552,0,1,0.447,1,1
					C183.136,396.501,182.688,396.948,182.136,396.948z"/>
			</g>
			<g>
				<path d="M168.238,401.959H96.513c-0.552,0-1-0.447-1-1c0-0.553,0.448-1,1-1h71.724c0.552,0,1,0.447,1,1
					C169.238,401.511,168.79,401.959,168.238,401.959z"/>
			</g>
		</g>
		<g style="opacity:0.3;">
			<path d="M144.605,270.92H96.293c-0.552,0-1-0.447-1-1c0-0.553,0.448-1,1-1h48.312c0.552,0,1,0.447,1,1
				C145.605,270.472,145.157,270.92,144.605,270.92z"/>
		</g>
	</g>
</g>
<g id="Clipboard">
	<g>
		<path style="fill:#407BFF;" d="M410.445,367.858H295.613c-1.911,0-3.461-1.549-3.461-3.461V174.699
			c0-1.911,1.549-3.461,3.461-3.461h114.831c1.911,0,3.461,1.549,3.461,3.461v189.698
			C413.905,366.309,412.356,367.858,410.445,367.858z"/>
		<path style="fill:#263238;" d="M385.864,177.383h-65.67v-6.441c0-0.356,0.289-0.645,0.645-0.645h64.381
			c0.356,0,0.645,0.289,0.645,0.645V177.383z"/>
		<rect x="296.967" y="177.383" style="opacity:0.9;fill:#FFFFFF;" width="112.124" height="184.308"/>
		<g>
			<g>
				<path style="fill:#263238;" d="M375.014,185.864h-19.726l-0.225-0.69c-0.288-0.885-1.103-1.479-2.029-1.479
					c-0.926,0-1.741,0.594-2.029,1.479l-0.225,0.691h-19.727c-1.594,0-2.89-1.292-2.89-2.88v-7.26c0-1.588,1.296-2.88,2.89-2.88
					h43.96c1.588,0,2.88,1.292,2.88,2.88v7.26C377.894,184.572,376.602,185.864,375.014,185.864z M356.67,183.864h18.344
					c0.485,0,0.88-0.395,0.88-0.88v-7.26c0-0.485-0.395-0.88-0.88-0.88h-43.96c-0.499,0-0.89,0.387-0.89,0.88v7.26
					c0,0.493,0.391,0.88,0.89,0.88h18.344c0.712-1.322,2.095-2.17,3.636-2.17C354.575,181.694,355.957,182.542,356.67,183.864z"/>
			</g>
			<g style="opacity:0.5;">
				<path style="fill:#FFFFFF;" d="M375.014,185.864h-19.726l-0.225-0.69c-0.288-0.885-1.103-1.479-2.029-1.479
					c-0.926,0-1.741,0.594-2.029,1.479l-0.225,0.691h-19.727c-1.594,0-2.89-1.292-2.89-2.88v-7.26c0-1.588,1.296-2.88,2.89-2.88
					h43.96c1.588,0,2.88,1.292,2.88,2.88v7.26C377.894,184.572,376.602,185.864,375.014,185.864z M356.67,183.864h18.344
					c0.485,0,0.88-0.395,0.88-0.88v-7.26c0-0.485-0.395-0.88-0.88-0.88h-43.96c-0.499,0-0.89,0.387-0.89,0.88v7.26
					c0,0.493,0.391,0.88,0.89,0.88h18.344c0.712-1.322,2.095-2.17,3.636-2.17C354.575,181.694,355.957,182.542,356.67,183.864z"/>
			</g>
		</g>
		<g>
			<path style="fill:#263238;" d="M371.919,176.033h-37.78c-0.546,0-0.989-0.443-0.989-0.989v-2.374
				c0-0.546,0.443-0.989,0.989-0.989h37.78c0.546,0,0.989,0.443,0.989,0.989v2.374C372.908,175.59,372.465,176.033,371.919,176.033z
				"/>
			<path style="opacity:0.2;fill:#FFFFFF;" d="M371.919,176.033h-37.78c-0.546,0-0.989-0.443-0.989-0.989v-2.374
				c0-0.546,0.443-0.989,0.989-0.989h37.78c0.546,0,0.989,0.443,0.989,0.989v2.374C372.908,175.59,372.465,176.033,371.919,176.033z
				"/>
		</g>
		<g>
			<g>
				
					<ellipse transform="matrix(0.2298 -0.9732 0.9732 0.2298 -25.7699 621.2698)" style="fill:#407BFF;" cx="379.619" cy="326.916" rx="21.278" ry="21.278"/>
				<path style="opacity:0.3;fill:#FFFFFF;" d="M379.619,326.916h21.278c0,11.673-9.605,21.278-21.278,21.278
					c-11.673,0-21.278-9.605-21.278-21.278c0-11.673,9.605-21.278,21.278-21.278c0.026,0,0.051,0,0.077,0L379.619,326.916z"/>
				<path style="opacity:0.3;fill:#FFFFFF;" d="M379.619,326.916l11.482,17.914c-3.427,2.196-7.412,3.364-11.482,3.364
					c-11.673,0-21.278-9.605-21.278-21.278c0-11.673,9.605-21.278,21.278-21.278c0.025,0,0.049,0,0.074,0L379.619,326.916z"/>
				<path style="opacity:0.3;fill:#FFFFFF;" d="M379.619,326.916l-17.94,11.443c-2.18-3.418-3.339-7.389-3.339-11.443
					c0-11.673,9.605-21.278,21.278-21.278c0.025,0,0.049,0,0.074,0L379.619,326.916z"/>
			</g>
			<g style="opacity:0.5;">
				<path d="M305.05,210.386v50.224h95.958v-50.224H305.05z M400.258,218.23h-16.61v-7.094h16.61V218.23z M347.206,218.23H330.11
					v-7.094h17.096V218.23z M347.956,211.136h17.096v7.094h-17.096V211.136z M347.206,218.98v40.88H330.11v-40.88H347.206z
					 M347.956,218.98h17.096v40.88h-17.096V218.98z M365.802,218.98h17.096v40.88h-17.096V218.98z M365.802,218.23v-7.094h17.096
					v7.094H365.802z M329.36,211.136v7.094H305.8v-7.094H329.36z M305.8,218.98h23.56v40.88H305.8V218.98z M383.648,259.86v-40.88
					h16.61v40.88H383.648z"/>
				<path d="M335.557,225.997h6.923c0.552,0,1-0.448,1-1c0-0.552-0.448-1-1-1h-6.923c-0.552,0-1,0.448-1,1
					C334.557,225.55,335.004,225.997,335.557,225.997z"/>
				<path d="M353.029,235.072h7.514c0.552,0,1-0.447,1-1c0-0.553-0.448-1-1-1h-7.514c-0.552,0-1,0.447-1,1
					C352.029,234.624,352.477,235.072,353.029,235.072z"/>
				<path d="M360.875,251.219h-7.846c-0.552,0-1,0.447-1,1c0,0.553,0.448,1,1,1h7.846c0.552,0,1-0.447,1-1
					C361.875,251.666,361.427,251.219,360.875,251.219z"/>
				<path d="M378.27,242.145h-8.291c-0.552,0-1,0.447-1,1c0,0.553,0.448,1,1,1h8.291c0.552,0,1-0.447,1-1
					C379.27,242.592,378.822,242.145,378.27,242.145z"/>
				<path d="M396.155,223.997h-8.391c-0.552,0-1,0.448-1,1c0,0.552,0.448,1,1,1h8.391c0.552,0,1-0.448,1-1
					C397.155,224.445,396.707,223.997,396.155,223.997z"/>
				<path d="M395.083,251.219h-7.319c-0.552,0-1,0.447-1,1c0,0.553,0.448,1,1,1h7.319c0.552,0,1-0.447,1-1
					C396.083,251.666,395.636,251.219,395.083,251.219z"/>
				<path d="M335.557,244.145h5.934c0.552,0,1-0.447,1-1c0-0.553-0.448-1-1-1h-5.934c-0.552,0-1,0.447-1,1
					C334.557,243.697,335.004,244.145,335.557,244.145z"/>
				<path d="M342.479,251.219h-6.923c-0.552,0-1,0.447-1,1c0,0.553,0.448,1,1,1h6.923c0.552,0,1-0.447,1-1
					C343.479,251.666,343.032,251.219,342.479,251.219z"/>
				<path d="M309.406,225.997h15.824c0.552,0,1-0.448,1-1c0-0.552-0.448-1-1-1h-15.824c-0.552,0-1,0.448-1,1
					C308.406,225.55,308.854,225.997,309.406,225.997z"/>
				<path d="M309.406,235.072h10.536c0.552,0,1-0.447,1-1c0-0.553-0.448-1-1-1h-10.536c-0.552,0-1,0.447-1,1
					C308.406,234.624,308.854,235.072,309.406,235.072z"/>
				<path d="M325.23,242.145h-15.824c-0.552,0-1,0.447-1,1c0,0.553,0.448,1,1,1h15.824c0.552,0,1-0.447,1-1
					C326.23,242.592,325.783,242.145,325.23,242.145z"/>
				<path d="M317.318,251.219h-7.912c-0.552,0-1,0.447-1,1c0,0.553,0.448,1,1,1h7.912c0.552,0,1-0.447,1-1
					C318.318,251.666,317.871,251.219,317.318,251.219z"/>
			</g>
			<g style="opacity:0.5;">
				<path d="M343.491,199.857H306.05c-0.552,0-1-0.448-1-1c0-0.552,0.448-1,1-1h37.441c0.552,0,1,0.448,1,1
					C344.491,199.41,344.043,199.857,343.491,199.857z"/>
			</g>
			<g style="opacity:0.5;">
				<path d="M330.36,205.473h-24.31c-0.552,0-1-0.448-1-1c0-0.552,0.448-1,1-1h24.31c0.552,0,1,0.448,1,1
					C331.36,205.025,330.912,205.473,330.36,205.473z"/>
			</g>
			<g style="opacity:0.5;">
				<path d="M354.361,269.283H306.05c-0.552,0-1-0.447-1-1s0.448-1,1-1h48.311c0.552,0,1,0.447,1,1S354.914,269.283,354.361,269.283
					z"/>
			</g>
			<g>
				<g>
					<rect x="305.05" y="308.922" style="fill:#407BFF;" width="5.968" height="5.968"/>
					<g style="opacity:0.5;">
						<path d="M344.984,312.906h-29.626c-0.552,0-1-0.447-1-1c0-0.553,0.448-1,1-1h29.626c0.552,0,1,0.447,1,1
							C345.984,312.459,345.537,312.906,344.984,312.906z"/>
					</g>
				</g>
				<g>
					<rect x="305.05" y="318.929" style="fill:#407BFF;" width="5.968" height="5.968"/>
					<g style="opacity:0.5;">
						<path d="M344.984,322.913h-29.626c-0.552,0-1-0.447-1-1c0-0.553,0.448-1,1-1h29.626c0.552,0,1,0.447,1,1
							C345.984,322.465,345.537,322.913,344.984,322.913z"/>
					</g>
				</g>
				<g>
					<rect x="305.05" y="328.935" style="fill:#407BFF;" width="5.968" height="5.968"/>
					<g style="opacity:0.5;">
						<path d="M344.984,332.919h-29.626c-0.552,0-1-0.447-1-1c0-0.553,0.448-1,1-1h29.626c0.552,0,1,0.447,1,1
							C345.984,332.472,345.537,332.919,344.984,332.919z"/>
					</g>
				</g>
				<g>
					<rect x="305.05" y="338.941" style="fill:#407BFF;" width="5.968" height="5.968"/>
					<g style="opacity:0.5;">
						<path d="M344.984,342.925h-29.626c-0.552,0-1-0.447-1-1c0-0.553,0.448-1,1-1h29.626c0.552,0,1,0.447,1,1
							C345.984,342.478,345.537,342.925,344.984,342.925z"/>
					</g>
				</g>
			</g>
			<g style="opacity:0.5;">
				<g>
					<path d="M399.677,278.221h-86.733c-0.552,0-1-0.447-1-1s0.448-1,1-1h86.733c0.552,0,1,0.447,1,1
						S400.229,278.221,399.677,278.221z"/>
				</g>
				<g>
					<path d="M399.787,283.232H306.05c-0.552,0-1-0.447-1-1c0-0.553,0.448-1,1-1h93.737c0.552,0,1,0.447,1,1
						C400.787,282.784,400.339,283.232,399.787,283.232z"/>
				</g>
				<g>
					<path d="M399.897,288.243H306.16c-0.552,0-1-0.447-1-1c0-0.553,0.448-1,1-1h93.737c0.552,0,1,0.447,1,1
						C400.897,287.796,400.45,288.243,399.897,288.243z"/>
				</g>
				<g>
					<path d="M385.999,293.254H306.27c-0.552,0-1-0.447-1-1c0-0.553,0.448-1,1-1h79.729c0.552,0,1,0.447,1,1
						C386.999,292.807,386.551,293.254,385.999,293.254z"/>
				</g>
			</g>
			<rect x="305.05" y="318.929" style="opacity:0.3;fill:#FFFFFF;" width="5.968" height="5.968"/>
			<rect x="305.05" y="328.935" style="opacity:0.5;fill:#FFFFFF;" width="5.968" height="5.968"/>
			<rect x="305.05" y="338.941" style="opacity:0.7;fill:#FFFFFF;" width="5.968" height="5.968"/>
		</g>
	</g>
</g>
<g id="Plant">
	<g>
		<path style="fill:#407BFF;" d="M407.414,393.254c0,0-4.75-10.364,0.677-20.581s7.001-12.624,3.541-14.717
			c-3.46-2.093-5.047,8.173-5.047,8.173s-2.916-7.063-0.508-14.454c2.408-7.392,3.918-19.431,0.629-20.722
			c-3.289-1.291-0.628,15.019-3.481,20.578c0,0-2.397-6.189-2.791-12.126c-0.394-5.937,0.222-15.417-2.375-17.849
			c-2.597-2.432-4.261-0.749-1.709,12.353c2.552,13.102,2.533,23.752,2.533,23.752s-5.637-17.186-9.42-17.688
			c-3.783-0.501-3.778,5.065-0.54,9.892c3.238,4.827,9.483,13.476,10.507,17.926c0,0-6.187-12.934-11.753-8.97
			c-5.566,3.964,4.844,11.776,9.484,14.599c4.64,2.823,7.862,20.518,7.862,20.518L407.414,393.254z"/>
		<path style="opacity:0.2;enable-background:new    ;" d="M407.414,393.254c0,0-4.75-10.364,0.677-20.581
			s7.001-12.624,3.541-14.717c-3.46-2.093-5.047,8.173-5.047,8.173s-2.916-7.063-0.508-14.454
			c2.408-7.392,3.918-19.431,0.629-20.722c-3.289-1.291-0.628,15.019-3.481,20.578c0,0-2.397-6.189-2.791-12.126
			c-0.394-5.937,0.222-15.417-2.375-17.849c-2.597-2.432-4.261-0.749-1.709,12.353c2.552,13.102,2.533,23.752,2.533,23.752
			s-5.637-17.186-9.42-17.688c-3.783-0.501-3.778,5.065-0.54,9.892c3.238,4.827,9.483,13.476,10.507,17.926
			c0,0-6.187-12.934-11.753-8.97c-5.566,3.964,4.844,11.776,9.484,14.599c4.64,2.823,7.862,20.518,7.862,20.518L407.414,393.254z"/>
		<path style="fill:#407BFF;" d="M403.664,397.505c0,0,4.625-10.434-0.924-20.569c-5.549-10.135-7.151-12.518-3.717-14.663
			c3.434-2.145,5.145,8.097,5.145,8.097s2.831-7.106,0.335-14.461c-2.497-7.355-4.151-19.371-0.878-20.711
			c3.273-1.34,0.808,15.008,3.728,20.525c0,0,2.322-6.224,2.645-12.167c0.323-5.942-0.407-15.412,2.161-17.883
			c2.568-2.47,4.251-0.813,1.857,12.326s-2.248,23.788-2.248,23.788s5.43-17.269,9.207-17.827c3.777-0.558,3.839,5.008,0.659,9.883
			c-3.18,4.875-9.321,13.616-10.292,18.081c0,0,6.031-13.025,11.644-9.144c5.613,3.881-4.703,11.847-9.308,14.739
			c-4.606,2.892-7.615,20.633-7.615,20.633L403.664,397.505z"/>
		<g>
			<polygon style="fill:#263238;" points="424.997,390.067 386.786,390.067 389.879,417.41 421.905,417.41 			"/>
		</g>
	</g>
</g>
<g id="Speech_bubble">
	<g>
		<g>
			<path style="fill:#407BFF;" d="M194.257,155.568h28.728c4.885,0,8.846,3.961,8.846,8.846v25.002c0,4.885-3.961,8.846-8.846,8.846
				h-8.388l3.029,10.896l-8.979-10.896h-14.391c-4.885,0-8.846-3.96-8.846-8.846v-25.002
				C185.411,159.528,189.372,155.568,194.257,155.568z"/>
			<path style="opacity:0.7;fill:#FFFFFF;" d="M194.257,155.568h28.728c4.885,0,8.846,3.961,8.846,8.846v25.002
				c0,4.885-3.961,8.846-8.846,8.846h-8.388l3.029,10.896l-8.979-10.896h-14.391c-4.885,0-8.846-3.96-8.846-8.846v-25.002
				C185.411,159.528,189.372,155.568,194.257,155.568z"/>
		</g>
		<g>
			<circle style="opacity:0.7;fill:#FFFFFF;" cx="204.283" cy="173.407" r="8.952"/>
			<circle style="fill:none;stroke:#407BFF;stroke-width:2.5967;stroke-miterlimit:10;" cx="204.283" cy="173.407" r="8.952"/>
			
				<line style="fill:none;stroke:#407BFF;stroke-width:2.5967;stroke-miterlimit:10;" x1="210.613" y1="179.737" x2="220.819" y2="189.943"/>
			
				<line style="fill:none;stroke:#407BFF;stroke-width:3.895;stroke-linecap:round;stroke-linejoin:round;stroke-miterlimit:10;" x1="214.115" y1="183.24" x2="221.911" y2="191.035"/>
		</g>
		<path style="fill:#FFFFFF;" d="M205.67,169.363c0,1.092-0.886,1.978-1.978,1.978c-1.092,0-1.978-0.886-1.978-1.978
			c0-1.092,0.886-1.978,1.978-1.978C204.785,167.385,205.67,168.27,205.67,169.363z"/>
		<path style="fill:#FFFFFF;" d="M208.637,170.821c0,0.546-0.443,0.989-0.989,0.989c-0.546,0-0.989-0.443-0.989-0.989
			c0-0.546,0.443-0.989,0.989-0.989C208.195,169.832,208.637,170.275,208.637,170.821z"/>
	</g>
</g>
<g id="Character">
	<g>
		<g>
			<g>
				<rect x="139.842" y="339.463" style="fill:#407BFF;" width="148.938" height="23.97"/>
				<rect x="139.842" y="339.463" style="opacity:0.8;fill:#FFFFFF;" width="148.938" height="23.97"/>
			</g>
			<g>
				<polygon style="opacity:0.2;enable-background:new    ;" points="288.78,345.797 288.78,343.845 186.805,344.664 				"/>
				<polygon style="opacity:0.2;enable-background:new    ;" points="288.78,354.201 288.78,352.695 243.001,354.332 				"/>
				<polygon style="opacity:0.2;enable-background:new    ;" points="288.78,359.816 288.78,357.872 214.969,358.997 				"/>
				<path style="opacity:0.2;enable-background:new    ;" d="M173.139,339.463l-2.159,17.87l2.547-2.72
					c1.178,5.036,4.687,8.821,4.687,8.821s2.368-2.944,3.759-6.876l69.555-0.799l-68.902-1.505c0.206-0.963,0.338-1.956,0.338-2.961
					c0-0.851-0.094-1.684-0.245-2.493l102.066-0.258l-102.302-0.801c-0.372-1.426-0.922-2.744-1.503-3.886
					c1.435-1.291,3.322-2.047,5.331-2.047H288.78v-2.344H173.139z"/>
			</g>
			<path style="fill:#407BFF;" d="M175.438,351.306c0.004,2.991,1.215,5.696,3.177,7.658c1.965,1.965,4.676,3.177,7.672,3.177H290.5
				c0.441,0,0.799,0.358,0.799,0.799v0.858c0,0.441-0.358,0.799-0.799,0.799H136.561c-3.668,0-7.001-1.49-9.408-3.897
				c-2.429-2.429-3.924-5.792-3.897-9.508c0.054-7.366,6.281-13.206,13.647-13.206H290.5c0.441,0,0.799,0.358,0.799,0.799v0.858
				c0,0.441-0.358,0.799-0.799,0.799H186.607C180.63,340.443,175.431,345.329,175.438,351.306z"/>
			<path style="opacity:0.4;fill:#FFFFFF;" d="M175.438,351.306c0.004,2.991,1.215,5.696,3.177,7.658
				c1.965,1.965,4.676,3.177,7.672,3.177H290.5c0.441,0,0.799,0.358,0.799,0.799v0.858c0,0.441-0.358,0.799-0.799,0.799H136.561
				c-3.668,0-7.001-1.49-9.408-3.897c-2.429-2.429-3.924-5.792-3.897-9.508c0.054-7.366,6.281-13.206,13.647-13.206H290.5
				c0.441,0,0.799,0.358,0.799,0.799v0.858c0,0.441-0.358,0.799-0.799,0.799H186.607
				C180.63,340.443,175.431,345.329,175.438,351.306z"/>
			<path style="fill:#407BFF;" d="M175.438,351.306c0.004,2.991,1.215,5.696,3.177,7.658c1.965,1.965,4.676,3.177,7.672,3.177H290.5
				c0.441,0,0.799,0.358,0.799,0.799v0.858c0,0.441-0.358,0.799-0.799,0.799H185.69c-3.668,0-7.001-1.49-9.408-3.897
				c-2.429-2.429-3.924-5.792-3.897-9.508c0.054-7.366,6.281-13.206,13.647-13.206H290.5c0.441,0,0.799,0.358,0.799,0.799v0.858
				c0,0.441-0.358,0.799-0.799,0.799H186.607C180.63,340.443,175.431,345.329,175.438,351.306z"/>
			<polygon style="fill:#263238;" points="195.065,344.849 195.065,354.459 198.543,350.98 201.914,354.351 201.914,344.849 			"/>
			<path style="opacity:0.6;fill:#FFFFFF;" d="M175.438,351.306c0.004,2.991,1.215,5.696,3.177,7.658
				c1.965,1.965,4.676,3.177,7.672,3.177H290.5c0.441,0,0.799,0.358,0.799,0.799v0.858c0,0.441-0.358,0.799-0.799,0.799H185.69
				c-3.668,0-7.001-1.49-9.408-3.897c-2.429-2.429-3.924-5.792-3.897-9.508c0.054-7.366,6.281-13.206,13.647-13.206H290.5
				c0.441,0,0.799,0.358,0.799,0.799v0.858c0,0.441-0.358,0.799-0.799,0.799H186.607
				C180.63,340.443,175.431,345.329,175.438,351.306z"/>
		</g>
		<g>
			<g>
				<rect x="147.033" y="392.276" style="fill:#407BFF;" width="148.938" height="23.97"/>
				<rect x="147.033" y="392.276" style="opacity:0.7;fill:#FFFFFF;" width="148.938" height="23.97"/>
			</g>
			<g>
				<polygon style="opacity:0.2;enable-background:new    ;" points="295.971,398.611 295.971,396.658 193.996,397.477 				"/>
				<polygon style="opacity:0.2;enable-background:new    ;" points="295.971,407.014 295.971,405.508 250.193,407.145 				"/>
				<polygon style="opacity:0.2;enable-background:new    ;" points="295.971,412.629 295.971,410.686 222.161,411.81 				"/>
				<path style="opacity:0.2;enable-background:new    ;" d="M180.33,392.276l-2.159,17.87l2.547-2.72
					c1.178,5.036,4.687,8.82,4.687,8.82s2.367-2.944,3.759-6.876l69.555-0.799l-68.902-1.505c0.206-0.963,0.338-1.956,0.338-2.961
					c0-0.851-0.094-1.684-0.245-2.493l102.066-0.258l-102.302-0.801c-0.372-1.426-0.922-2.744-1.503-3.886
					c1.435-1.291,3.322-2.047,5.331-2.047h102.468v-2.344H180.33z"/>
			</g>
			<path style="fill:#263238;" d="M182.63,404.119c0.004,2.991,1.215,5.696,3.177,7.658c1.965,1.965,4.676,3.177,7.672,3.177
				h104.213c0.441,0,0.799,0.358,0.799,0.799v0.858c0,0.441-0.358,0.799-0.799,0.799H135.565c-3.668,0-7.001-1.49-9.408-3.897
				c-2.429-2.429-3.924-5.792-3.897-9.508c0.054-7.366,6.281-13.206,13.647-13.206h161.786c0.441,0,0.799,0.358,0.799,0.799v0.858
				c0,0.441-0.358,0.799-0.799,0.799H193.798C187.822,393.256,182.622,398.142,182.63,404.119z"/>
			<path style="opacity:0.2;fill:#FFFFFF;" d="M182.63,404.119c0.004,2.991,1.215,5.696,3.177,7.658
				c1.965,1.965,4.676,3.177,7.672,3.177h104.213c0.441,0,0.799,0.358,0.799,0.799v0.858c0,0.441-0.358,0.799-0.799,0.799H135.565
				c-3.668,0-7.001-1.49-9.408-3.897c-2.429-2.429-3.924-5.792-3.897-9.508c0.054-7.366,6.281-13.206,13.647-13.206h161.786
				c0.441,0,0.799,0.358,0.799,0.799v0.858c0,0.441-0.358,0.799-0.799,0.799H193.798
				C187.822,393.256,182.622,398.142,182.63,404.119z"/>
			<path style="fill:#263238;" d="M182.63,404.119c0.004,2.991,1.215,5.696,3.177,7.658c1.965,1.965,4.676,3.177,7.672,3.177
				h104.213c0.441,0,0.799,0.358,0.799,0.799v0.858c0,0.441-0.358,0.799-0.799,0.799H192.881c-3.668,0-7.001-1.49-9.408-3.897
				c-2.429-2.429-3.924-5.792-3.897-9.508c0.054-7.366,6.281-13.206,13.647-13.206h104.469c0.441,0,0.799,0.358,0.799,0.799v0.858
				c0,0.441-0.358,0.799-0.799,0.799H193.798C187.822,393.256,182.622,398.142,182.63,404.119z"/>
			<polygon style="fill:#407BFF;" points="193.996,401.076 193.996,410.686 197.475,407.207 200.846,410.578 200.846,401.076 			"/>
			<path style="opacity:0.4;fill:#FFFFFF;" d="M182.63,404.119c0.004,2.991,1.215,5.696,3.177,7.658
				c1.965,1.965,4.676,3.177,7.672,3.177h104.213c0.441,0,0.799,0.358,0.799,0.799v0.858c0,0.441-0.358,0.799-0.799,0.799H192.881
				c-3.668,0-7.001-1.49-9.408-3.897c-2.429-2.429-3.924-5.792-3.897-9.508c0.054-7.366,6.281-13.206,13.647-13.206h104.469
				c0.441,0,0.799,0.358,0.799,0.799v0.858c0,0.441-0.358,0.799-0.799,0.799H193.798
				C187.822,393.256,182.622,398.142,182.63,404.119z"/>
		</g>
		<g>
			
				<rect x="133.63" y="365.868" transform="matrix(-1 -1.224647e-16 1.224647e-16 -1 322.4436 755.6717)" style="fill:#407BFF;" width="55.184" height="23.935"/>
			
				<rect x="133.63" y="365.868" transform="matrix(-1 -1.224647e-16 1.224647e-16 -1 322.4436 755.6717)" style="opacity:0.8;fill:#FFFFFF;" width="55.184" height="23.935"/>
			<polygon style="opacity:0.2;enable-background:new    ;" points="184.387,368.21 133.63,368.21 133.63,365.868 184.333,365.868 
							"/>
			<g>
				<polygon style="opacity:0.2;enable-background:new    ;" points="184.388,370.251 138.597,371.228 184.388,372.204 				"/>
				<polygon style="opacity:0.2;enable-background:new    ;" points="184.388,379.101 135.897,379.92 184.388,380.608 				"/>
				<polygon style="opacity:0.2;enable-background:new    ;" points="184.388,384.279 136.329,385.251 184.388,386.223 				"/>
				<polygon style="opacity:0.2;enable-background:new    ;" points="133.63,373.661 180.122,375.065 133.63,376.037 				"/>
			</g>
			<path style="fill:#263238;" d="M256.789,377.712c-0.004,2.991-1.215,5.696-3.177,7.658c-1.965,1.965-4.676,3.177-7.672,3.177
				H131.083c-0.441,0-0.799,0.358-0.799,0.799v0.858c0,0.441,0.358,0.799,0.799,0.799h115.455c3.668,0,7.001-1.49,9.408-3.897
				c2.429-2.429,3.924-5.792,3.897-9.508c-0.054-7.366-6.281-13.206-13.647-13.206l-115.113,0c-0.441,0-0.799,0.358-0.799,0.799
				v0.858c0,0.441,0.358,0.799,0.799,0.799h114.538C251.598,366.849,256.797,371.736,256.789,377.712z"/>
			<path style="opacity:0.4;fill:#FFFFFF;" d="M256.789,377.712c-0.004,2.991-1.215,5.696-3.177,7.658
				c-1.965,1.965-4.676,3.177-7.672,3.177H131.083c-0.441,0-0.799,0.358-0.799,0.799v0.858c0,0.441,0.358,0.799,0.799,0.799h115.455
				c3.668,0,7.001-1.49,9.408-3.897c2.429-2.429,3.924-5.792,3.897-9.508c-0.054-7.366-6.281-13.206-13.647-13.206l-115.113,0
				c-0.441,0-0.799,0.358-0.799,0.799v0.858c0,0.441,0.358,0.799,0.799,0.799h114.538
				C251.598,366.849,256.797,371.736,256.789,377.712z"/>
			<g>
				<path style="fill:#407BFF;" d="M298.678,377.854L298.678,377.854c0,6.619-5.366,11.985-11.985,11.985H184.389v-23.97h102.304
					C293.312,365.869,298.678,371.235,298.678,377.854z"/>
				<path style="opacity:0.7;fill:#FFFFFF;" d="M184.387,365.868v23.975h102.31c2.53,0,4.872-0.786,6.804-2.121
					c3.128-2.162,5.175-5.781,5.175-9.867c0-6.624-5.363-11.987-11.979-11.987H184.387z"/>
			</g>
			<g>
				<polygon style="opacity:0.2;enable-background:new    ;" points="184.388,372.204 184.388,370.251 286.363,371.07 				"/>
				<polygon style="opacity:0.2;enable-background:new    ;" points="184.388,380.608 184.388,379.101 230.167,380.739 				"/>
				<polygon style="opacity:0.2;enable-background:new    ;" points="184.388,386.223 184.388,384.279 258.199,385.404 				"/>
				<path style="opacity:0.2;enable-background:new    ;" d="M286.86,368.21c2.006,0,3.889,0.761,5.33,2.047
					c-0.581,1.146-1.13,2.465-1.507,3.889l-102.302,0.802l102.064,0.254c-0.148,0.811-0.246,1.646-0.246,2.497
					c0,1.007,0.131,1.998,0.344,2.956l-68.903,1.507l69.549,0.802c0.663,1.883,1.556,3.545,2.309,4.757
					c3.128-2.162,5.175-5.781,5.175-9.867c0-6.624-5.363-11.987-11.979-11.987h-102.31v2.342H286.86z"/>
			</g>
			<path style="fill:#263238;" d="M297.73,377.712c-0.004,2.991-1.215,5.696-3.177,7.658c-1.965,1.965-4.675,3.177-7.672,3.177
				H182.668c-0.441,0-0.799,0.358-0.799,0.799v0.858c0,0.441,0.358,0.799,0.799,0.799h104.811c3.668,0,7.001-1.49,9.408-3.897
				c2.429-2.429,3.924-5.792,3.897-9.508c-0.054-7.366-6.281-13.206-13.647-13.206l-104.469,0c-0.441,0-0.799,0.358-0.799,0.799
				v0.858c0,0.441,0.358,0.799,0.799,0.799h103.893C292.538,366.849,297.737,371.736,297.73,377.712z"/>
			<polygon style="fill:#407BFF;" points="286.363,374.669 286.363,384.279 282.885,380.8 279.514,384.171 279.514,374.669 			"/>
		</g>
	</g>
	<g>
		<path style="fill:#EEC1BB;" d="M313.39,239.593l-2.502,0.047c-0.941,0.018-1.815,0.489-2.347,1.266l-2.486,3.628
			c-0.994,1.451-1.223,3.293-0.616,4.943l0.376,1.022c4.155,0.206,8.797-2.633,8.797-2.633l1.413-0.663
			c1.258-0.59,1.801-1.989,1.247-3.212l-1.277-2.817C315.554,240.201,314.518,239.572,313.39,239.593z"/>
		<g>
			<path style="fill:#EBC0BB;" d="M265.959,244.045l2.399,1.927c0.831,0.656,1.682,1.295,2.539,1.923
				c1.71,1.264,3.456,2.469,5.214,3.632c1.766,1.155,3.564,2.212,5.373,3.211c1.821,0.968,3.654,1.824,5.501,2.556l-0.951-0.2
				c-0.045,0.055,0.533,0.051,1.204-0.132c0.685-0.177,1.488-0.482,2.303-0.865c1.638-0.779,3.362-1.763,5.048-2.855
				c1.7-1.082,3.389-2.255,5.073-3.463c1.694-1.183,3.375-2.476,5.013-3.695l0.062-0.046c1.124-0.836,2.712-0.603,3.549,0.521
				c0.69,0.927,0.649,2.172-0.016,3.049c-1.366,1.796-2.794,3.412-4.285,5.052c-1.501,1.614-3.083,3.168-4.767,4.668
				c-1.705,1.478-3.484,2.929-5.567,4.221c-1.047,0.645-2.171,1.26-3.493,1.791c-1.33,0.509-2.872,1.003-5.049,0.883
				c-0.225-0.012-0.443-0.05-0.65-0.11l-0.301-0.09c-2.411-0.713-4.743-1.565-6.956-2.584c-2.208-1.017-4.352-2.129-6.399-3.359
				c-2.055-1.217-4.036-2.53-5.956-3.918c-0.955-0.702-1.899-1.416-2.831-2.155c-0.954-0.742-1.812-1.468-2.804-2.36
				c-2.087-1.875-2.258-5.086-0.383-7.173c1.809-2.012,4.86-2.243,6.946-0.574L265.959,244.045z"/>
		</g>
		<path style="fill:#407BFF;" d="M252.529,236.932c-2.339,6.516,1.431,13.004,10.496,20.629c4.518-0.666,10.601-9.92,10.601-9.92
			S260.875,234.884,252.529,236.932z"/>
		<path style="fill:#263238;" d="M260.328,196.429c0,0-8.932-9.14-20.566,2.331c-11.634,11.471-13.907,49.47-13.907,49.47
			l30.376,5.903c0,0,3.93-4.514,5.949-17.522c2.019-13.008,3.09-25.447,5.652-28.351
			C270.395,205.356,260.328,196.429,260.328,196.429z"/>
		<polygon style="fill:#EEC1BB;" points="286.42,388.873 279.84,386.25 282.41,376.657 284.781,367.859 293.1,369.701 
			289.568,379.853 		"/>
		<polygon style="opacity:0.2;enable-background:new    ;" points="289.486,380.056 282.338,376.837 284.746,367.95 
			293.082,369.746 		"/>
		<path style="fill:#263238;" d="M236.628,302.458c0,0,54.984-7.414,70.281,2.344c15.297,9.758-14.312,69.201-14.312,69.201
			l-9.259-2.046c0,0,6.939-47.116,6.42-49.091c-0.519-1.975-26.415,10.885-61.863,12.103L236.628,302.458z"/>
		<path style="opacity:0.2;enable-background:new    ;" d="M236.628,302.458c0,0,54.984-7.414,70.281,2.344
			c15.297,9.758-14.312,69.201-14.312,69.201l-9.259-2.046c0,0,6.939-47.116,6.42-49.091c-0.519-1.975-26.415,10.885-61.863,12.103
			L236.628,302.458z"/>
		<polygon style="fill:#263238;" points="282.826,368.998 294.48,372.776 292.391,378.09 281.685,374.448 		"/>
		<g>
			
				<path style="fill:none;stroke:#577AFA;stroke-width:0.4831;stroke-linecap:round;stroke-linejoin:round;stroke-miterlimit:10;" d="
				M288.733,387.693c0,0,2.288-2.98,3.722-1.628C294.104,387.622,288.733,387.693,288.733,387.693s4.494,0.157,4.393,1.694
				C292.973,391.714,288.733,387.693,288.733,387.693z"/>
			<path style="fill:#2E353A;" d="M278.608,382.156c0.259-0.738,9.195,2.811,9.195,2.811s3.757,7.535,8.793,10.591
				c5.036,3.057,0.925,5.337-5.17,3.356c-6.095-1.981-10.746-3.494-15.077-4.902C272.018,392.604,275.924,389.795,278.608,382.156z"
				/>
		</g>
		<polygon style="opacity:0.4;fill:#FFFFFF;enable-background:new    ;" points="282.826,368.998 294.48,372.776 292.391,378.09 
			281.685,374.448 		"/>
		<polygon style="fill:#EEC1BB;" points="315.116,407.904 308.298,409.823 304.504,400.645 301.037,392.219 308.76,388.622 
			312.13,398.829 		"/>
		<path style="fill:#2E353A;" d="M305.272,405.001c0.038-0.781,9.615,0.07,9.615,0.07s5.751,6.15,11.449,7.641
			c5.699,1.492,2.409,4.852-3.998,4.692c-6.407-0.16-11.296-0.282-15.848-0.395C301.938,416.895,304.88,413.089,305.272,405.001z"/>
		
			<path style="fill:none;stroke:#577AFA;stroke-width:0.4831;stroke-linecap:round;stroke-linejoin:round;stroke-miterlimit:10;" d="
			M316.041,406.113c0,0,1.342-3.509,3.103-2.622C321.169,404.513,316.041,406.113,316.041,406.113s4.351-1.132,4.694,0.37
			C321.253,408.757,316.041,406.113,316.041,406.113z"/>
		<polygon style="opacity:0.2;enable-background:new    ;" points="312.189,399.039 304.557,400.832 301.064,392.312 
			308.773,388.668 		"/>
		<path style="fill:#263238;" d="M252.228,309.569c0,0-0.792-10.88-1.158-13.1c-0.377-2.356-0.874-5.111-1.345-6.515
			c-2.419-7.257-34.749,1.275-34.749,1.275l-0.918,4.972c0,0-14.588,27.506-4.84,37.415c2.963,3.013,8.772,4.368,14.706,4.32
			c0,0,18.13,0.877,51.842-0.694c0,0-2.494,19.637,25.298,58.119l9.296-2.976c0,0-18.38-69.854-19.922-71.099
			C276.993,310.426,252.228,309.569,252.228,309.569z"/>
		<polygon style="fill:#263238;" points="299.383,394.919 310.932,390.832 312.505,396.321 301.792,399.94 		"/>
		<path style="fill:#407BFF;" d="M263.098,242.14c0,0-1.16,2.84-2.78,7.8c-0.39,1.16-0.79,2.44-1.21,3.82
			c-0.55,1.81-1.14,3.8-1.73,5.96c-0.43,1.56-0.86,3.19-1.28,4.91c-0.43,1.74-0.87,3.58-1.3,5.47c-0.04,0.22-0.1,0.45-0.14,0.67
			c-1.63,7.34-3.06,14.44-3.96,23.49l-35.52-3.1c0,0-0.12-10.97,1.21-23.34c0.72-6.69,1.86-13.78,3.67-19.78
			c1.41-4.68,3.23-8.7,5.57-11.33C225.627,236.71,244.888,230.39,263.098,242.14z"/>
		<path style="fill:#407BFF;" d="M244.98,231.608c-10.686-3.413-14.835,4.958-14.835,4.958l5.683-0.559l11.556,14.501l6.769-8.765
			l4.26,2.285C258.413,244.029,254.263,234.574,244.98,231.608z"/>
		<path style="opacity:0.6;fill:#FFFFFF;enable-background:new    ;" d="M244.98,231.608c-10.686-3.413-14.835,4.958-14.835,4.958
			l5.683-0.559l11.556,14.501l6.769-8.765l4.26,2.285C258.413,244.029,254.263,234.574,244.98,231.608z"/>
		<path style="fill:#EEC1BB;" d="M247.096,249.765l-9.798-14.67c4.626-2.099,7.686-10.934,8.347-15.917l6.927,10.462
			c-2.26,3.36-3.769,7.201,1.41,10.096C253.983,239.737,247.095,249.733,247.096,249.765z"/>
		<path style="opacity:0.2;" d="M248.468,223.446l4.101,6.189c-0.538,0.794-1.028,1.616-1.393,2.448
			c-2.045-0.918-4.223-3.976-3.715-6.137C247.715,224.869,248.115,223.879,248.468,223.446z"/>
		<g>
			<polygon points="214.595,292.331 225.702,293.062 225.302,296.197 213.505,295.347 			"/>
			<polygon points="251.553,298.075 226.641,296.287 227.041,293.152 251.147,294.736 			"/>
			<path style="fill:none;stroke:#FFFFFF;stroke-miterlimit:10;" d="M238.578,294.399l-0.083,2.045
				c-0.019,0.474,0.342,0.876,0.815,0.908l3.048,0.204c0.48,0.032,0.895-0.329,0.931-0.808l0.153-2.074
				c0.036-0.488-0.335-0.91-0.823-0.938l-3.118-0.175C239.013,293.534,238.598,293.911,238.578,294.399z"/>
		</g>
		<polygon style="opacity:0.5;fill:#FFFFFF;enable-background:new    ;" points="299.383,394.919 310.932,390.832 312.505,396.321 
			301.792,399.94 		"/>
		<g>
			
				<path style="fill:none;stroke:#263238;stroke-width:0.554;stroke-linecap:round;stroke-linejoin:round;stroke-miterlimit:10;" d="
				M269.926,216.214c0,0-1.048-2.076-3.026-2.246"/>
			<path style="fill:#D4827D;" d="M266.59,220.822c0,0,0.183,2.419,0.825,4.074c0,0-1.09,0.741-2.354-0.016L266.59,220.822z"/>
			<g>
				<path style="fill:#263238;" d="M268.796,219.326c-0.256,0.624-0.8,0.992-1.216,0.822c-0.416-0.17-0.546-0.814-0.291-1.438
					c0.255-0.624,0.8-0.992,1.216-0.822C268.921,218.058,269.051,218.702,268.796,219.326z"/>
				<path style="fill:#263238;" d="M268.32,217.847l1.575,0.023C269.895,217.87,268.751,218.736,268.32,217.847z"/>
			</g>
			<path style="fill:#EEC1BB;" d="M245.779,224.708c0.043,0.105,0.086,0.209,0.153,0.291c0.099,0.198,0.209,0.385,0.319,0.583
				c0.649,1.166,1.46,2.325,2.564,3.226c3.413,2.834,6.357,3.736,8.985,3.008c0.127-0.031,0.255-0.074,0.383-0.117
				c0.011,0.012,0.011,0.012,0.011,0.012c3.912-1.477,7.004-6.033,9.605-12.097c1.208-2.775,2.008-5.308,2.178-7.511
				c0.001-0.023,0.037-0.091,0.037-0.114c0.002-0.092,0.028-0.206,0.031-0.298c0.17-3.112-0.846-5.69-3.436-7.871
				c-0.901-0.759-1.987-1.476-3.281-2.141C251.921,195.783,240.294,213.727,245.779,224.708z"/>
			<path style="fill:#263238;" d="M270.024,212.029c0,0-3.42,8.359-12.779,7.973c0,0-7.48,6.704-12.356,4.395
				c-6.648-3.148-7.727-15.408-0.657-23.779C253.4,189.764,272.602,198.182,270.024,212.029z"/>
			<path style="fill:#EEC1BB;" d="M262.267,219.638c0.629-1.256,0.683-3.87-1.411-4.567c-2.167-0.721-5.792,3.69-1.393,7.3
				C260.094,222.889,260.953,222.258,262.267,219.638z"/>
			<path style="fill:#263238;" d="M260.328,196.429c0,0,8.648,1.925,11.334,7.146c3.137,6.097,3.137,10.769-5.64,13.598
				c0,0-10.776-10.665-15.502-11.938c-4.727-1.273-8.418-1.568-8.418-1.568C245.487,194.708,256.921,192.532,260.328,196.429z"/>
		</g>
		<path style="fill:#263238;" d="M257.245,220.002c-5.44,10.864-17.407,29.335-30.153,16.303c0,0,4.577-14.731,13.831-20.819
			C250.178,209.399,257.245,220.002,257.245,220.002z"/>
		<path style="fill:#263238;" d="M255.266,238.135c4.657,3.431-1.3,14.758,4.573,17.28c0,0-1.849-2.263-0.621-5.345
			c1.228-3.082,6.22-11.216,4.235-22.24L255.266,238.135z"/>
		<path style="opacity:0.2;" d="M231.177,262.03c0,0-7.6,5.15-14.79,5.79c0.72-6.69,1.86-13.78,3.67-19.78
			c1.17-0.58,2.21-0.9,3.01-0.88c5.34,0.1,7.29,5.11,7.29,5.11S231.307,257.29,231.177,262.03z"/>
		<path style="fill:#EEC1BB;" d="M258.918,297.671l-1.6-1.924c-0.602-0.724-1.516-1.111-2.455-1.042l-4.386,0.327
			c-1.753,0.131-3.335,1.103-4.244,2.608l-0.563,0.932c2.436,3.372,7.553,5.222,7.553,5.222l1.4,0.689
			c1.247,0.613,2.678,0.163,3.287-1.034l1.401-2.757C259.796,299.74,259.639,298.538,258.918,297.671z"/>
		<g>
			<path style="fill:#EBC0BB;" d="M228.13,251.703l-0.005,3.077c0.008,1.059,0.04,2.122,0.086,3.184
				c0.081,2.125,0.233,4.241,0.423,6.341c0.202,2.1,0.501,4.165,0.851,6.201c0.383,2.027,0.859,3.993,1.442,5.892l-0.438-0.867
				c0.348,0.62,1.013,1.482,1.68,2.313c0.681,0.842,1.422,1.697,2.189,2.545c1.542,1.694,3.137,3.411,4.776,5.099l4.938,5.099
				l4.951,5.138c0.971,1.008,0.941,2.613-0.067,3.584c-0.858,0.827-2.153,0.926-3.118,0.314c-2.067-1.31-4.03-2.698-6.017-4.092
				c-1.968-1.412-3.902-2.872-5.819-4.375c-1.902-1.521-3.802-3.063-5.65-4.737c-0.926-0.837-1.847-1.701-2.769-2.63
				c-0.929-0.945-1.822-1.904-2.798-3.275c-0.132-0.185-0.239-0.38-0.322-0.581l-0.117-0.287c-0.949-2.328-1.742-4.681-2.329-7.045
				c-0.586-2.359-1.057-4.728-1.376-7.094c-0.335-2.365-0.547-4.732-0.663-7.098c-0.048-1.184-0.081-2.367-0.087-3.557
				c-0.017-1.209,0.014-2.332,0.09-3.665c0.16-2.8,2.56-4.941,5.361-4.781c2.701,0.154,4.788,2.393,4.789,5.064L228.13,251.703z"/>
		</g>
		<path style="fill:#407BFF;" d="M225.291,236.773c-6.549,2.246-9.258,9.243-9.546,21.085c3.343,3.111,14.369,2.077,14.369,2.077
			S232.104,242.008,225.291,236.773z"/>
		<g>
			<path style="fill:#263238;" d="M295.866,306.875v3.158c0,0.81-0.954,1.142-1.754,1.142H231c-0.811,0-1.786-0.332-1.786-1.142
				v-3.158H295.866z"/>
			<path style="opacity:0.4;fill:#FFFFFF;enable-background:new    ;" d="M295.866,306.875v3.158c0,0.81-0.954,1.142-1.754,1.142
				H231c-0.811,0-1.786-0.332-1.786-1.142v-3.158H295.866z"/>
			<path style="opacity:0.2;enable-background:new    ;" d="M295.866,306.875v3.158c0,0.81-0.954,1.142-1.754,1.142h-41.626
				c-0.809,0-1.771-0.332-1.771-1.142v-3.158H295.866z"/>
			<path style="fill:#263238;" d="M306.426,274.085l-7.513,34.078c-0.244,1.122-1.337,1.937-2.44,1.937h-41.04
				c-1.093,0-1.795-1.019-1.542-2.142l7.504-33.817c0.254-1.113,1.337-1.667,2.439-1.667h41.041
				C305.977,272.474,306.67,272.972,306.426,274.085z"/>
			<path style="opacity:0.4;fill:#FFFFFF;enable-background:new    ;" d="M306.426,274.085l-7.513,34.078
				c-0.244,1.122-1.337,1.937-2.44,1.937h-39.645c-1.102,0-1.795-1.019-1.552-2.142l7.514-33.817
				c0.244-1.113,1.336-1.667,2.439-1.667h39.646C305.977,272.474,306.67,272.972,306.426,274.085z"/>
			<path style="opacity:0.2;enable-background:new    ;" d="M286.191,291.405v0.01c0,2.918-3.128,5.288-5.421,5.288
				c-2.293,0-3.652-2.371-2.999-5.288c0.654-2.86,2.936-5.191,5.18-5.28c-0.654,2.917,0.747,5.28,3.03,5.28
				C286.029,291.416,286.191,291.416,286.191,291.405z"/>
		</g>
	</g>
</g>
</svg>
