<?xml version="1.0" encoding="utf-8"?>
<!-- Generator: Adobe Illustrator 27.5.0, SVG Export Plug-In . SVG Version: 6.00 Build 0)  -->
<svg version="1.1" xmlns="http://www.w3.org/2000/svg" xmlns:xlink="http://www.w3.org/1999/xlink" x="0px" y="0px"
	 viewBox="0 0 500 500" style="enable-background:new 0 0 500 500;" xml:space="preserve">
<g id="Background_Complete">
	<g>
		<rect y="382.398" style="fill:#EBEBEB;" width="500" height="0.25"/>
		<rect x="394.358" y="393.852" style="fill:#EBEBEB;" width="50.901" height="0.25"/>
		<rect x="52.459" y="390.888" style="fill:#EBEBEB;" width="47.208" height="0.25"/>
		<rect x="378.807" y="389.208" style="fill:#EBEBEB;" width="19.192" height="0.25"/>
		<rect x="317.138" y="395.838" style="fill:#EBEBEB;" width="14.082" height="0.25"/>
		<rect x="272.79" y="395.838" style="fill:#EBEBEB;" width="35.444" height="0.25"/>
		<rect x="195.222" y="391.616" style="fill:#EBEBEB;" width="56.986" height="0.25"/>
		<path style="fill:#EBEBEB;" d="M237.014,337.8H43.915c-3.147,0-5.708-2.561-5.708-5.708V60.66c0-3.147,2.561-5.708,5.708-5.708
			h193.099c3.146,0,5.707,2.561,5.707,5.708v271.432C242.721,335.239,240.16,337.8,237.014,337.8z M43.915,55.203
			c-3.01,0-5.458,2.448-5.458,5.458v271.432c0,3.01,2.448,5.458,5.458,5.458h193.099c3.009,0,5.457-2.448,5.457-5.458V60.66
			c0-3.009-2.448-5.458-5.457-5.458H43.915z"/>
		<path style="fill:#EBEBEB;" d="M453.31,337.8H260.212c-3.147,0-5.707-2.561-5.707-5.708V60.66c0-3.147,2.561-5.708,5.707-5.708
			H453.31c3.148,0,5.708,2.561,5.708,5.708v271.432C459.019,335.239,456.458,337.8,453.31,337.8z M260.212,55.203
			c-3.009,0-5.457,2.448-5.457,5.458v271.432c0,3.01,2.448,5.458,5.457,5.458H453.31c3.01,0,5.458-2.448,5.458-5.458V60.66
			c0-3.009-2.448-5.458-5.458-5.458H260.212z"/>
	</g>
	<g>
		<g>
			<g>
				
					<rect x="329.147" y="208.008" transform="matrix(-1 -1.224647e-16 1.224647e-16 -1 688.2775 503.4246)" style="fill:#E6E6E6;" width="29.984" height="87.408"/>
				<rect x="359.131" y="208.008" style="fill:#F5F5F5;" width="62.168" height="87.408"/>
				
					<rect x="403.302" y="261.918" transform="matrix(-1 -1.224647e-16 1.224647e-16 -1 824.6015 535.7117)" style="fill:#F0F0F0;" width="17.997" height="11.876"/>
				
					<rect x="403.302" y="277.087" transform="matrix(-1 -1.224647e-16 1.224647e-16 -1 824.6015 566.0512)" style="fill:#F0F0F0;" width="17.997" height="11.876"/>
				
					<rect x="327.823" y="203.577" transform="matrix(-1 -1.224647e-16 1.224647e-16 -1 686.4923 411.5855)" style="fill:#E0E0E0;" width="30.845" height="4.431"/>
				<rect x="358.669" y="203.577" style="fill:#F0F0F0;" width="63.954" height="4.431"/>
			</g>
			<g>
				
					<rect x="306.559" y="301.577" transform="matrix(-1 -1.224647e-16 1.224647e-16 -1 654.806 683.9757)" style="fill:#E6E6E6;" width="41.688" height="80.821"/>
				<rect x="348.247" y="301.577" style="fill:#F5F5F5;" width="86.435" height="80.821"/>
				
					<rect x="355.275" y="310.832" transform="matrix(-1 -1.224647e-16 1.224647e-16 -1 740.4196 647.9829)" style="fill:#F0F0F0;" width="29.87" height="26.318"/>
				
					<rect x="355.275" y="344.449" transform="matrix(-1 -1.224647e-16 1.224647e-16 -1 740.4196 715.2167)" style="fill:#F0F0F0;" width="29.87" height="26.318"/>
				
					<rect x="304.719" y="295.416" transform="matrix(-1 -1.224647e-16 1.224647e-16 -1 652.3241 596.9934)" style="fill:#E0E0E0;" width="42.886" height="6.161"/>
				<rect x="347.605" y="295.416" style="fill:#F0F0F0;" width="88.917" height="6.161"/>
			</g>
		</g>
		<g>
			<g>
				<rect x="179.778" y="79.241" style="fill:#EBEBEB;" width="80.175" height="303.158"/>
				
					<rect x="74.417" y="196.144" transform="matrix(-1.836970e-16 1 -1 -1.836970e-16 450.6855 10.9538)" style="fill:#FAFAFA;" width="290.897" height="69.352"/>
			</g>
			<g>
				<rect x="97.198" y="79.241" style="fill:#EBEBEB;" width="80.175" height="303.158"/>
				
					<rect x="177.373" y="80.433" transform="matrix(-1 -1.224647e-16 1.224647e-16 -1 357.1513 461.6391)" style="fill:#E0E0E0;" width="2.405" height="300.774"/>
				
					<rect x="-8.163" y="196.144" transform="matrix(-1.836970e-16 1 -1 -1.836970e-16 368.1049 93.5344)" style="fill:#FAFAFA;" width="290.897" height="69.352"/>
			</g>
			<path style="fill:#E0E0E0;" d="M296.43,76.97H60.721c-0.658,0-1.196-0.538-1.196-1.196v-0.332c0-0.658,0.538-1.196,1.196-1.196
				H296.43c0.658,0,1.196,0.538,1.196,1.196v0.332C297.626,76.432,297.088,76.97,296.43,76.97z"/>
			
				<rect x="216.971" y="53.59" transform="matrix(-1.836970e-16 1 -1 -1.836970e-16 308.1313 -131.6004)" style="fill:#E0E0E0;" width="5.789" height="69.352"/>
			
				<rect x="190.735" y="79.826" transform="matrix(-1.836970e-16 1 -1 -1.836970e-16 334.3678 -105.3639)" style="fill:#E0E0E0;" width="58.262" height="69.352"/>
			
				<rect x="73.602" y="114.378" transform="matrix(-1.836970e-16 1 -1 -1.836970e-16 286.3392 11.7687)" style="fill:#E0E0E0;" width="127.366" height="69.352"/>
			<g style="opacity:0.5;">
				<rect x="246.596" y="67.889" style="fill:#F5F5F5;" width="22.92" height="310.782"/>
				<rect x="252.646" y="67.889" style="fill:#F0F0F0;" width="10.82" height="310.782"/>
				<rect x="258.891" y="67.889" style="fill:#F5F5F5;" width="22.92" height="310.782"/>
				<rect x="264.941" y="67.889" style="fill:#F0F0F0;" width="10.819" height="310.782"/>
				<rect x="270.351" y="67.889" style="fill:#F5F5F5;" width="22.92" height="310.782"/>
			</g>
			<g style="opacity:0.5;">
				<rect x="63.18" y="67.889" style="fill:#F5F5F5;" width="68.495" height="310.782"/>
				<rect x="81.26" y="67.889" style="fill:#F0F0F0;" width="32.334" height="310.782"/>
				<rect x="99.923" y="67.889" style="fill:#F5F5F5;" width="68.495" height="310.782"/>
				<rect x="118.004" y="67.889" style="fill:#F0F0F0;" width="32.334" height="310.782"/>
				<rect x="134.171" y="67.889" style="fill:#F5F5F5;" width="68.495" height="310.782"/>
			</g>
		</g>
		<g>
			<g>
				
					<rect x="336.054" y="80.459" transform="matrix(-1 -1.224647e-16 1.224647e-16 -1 760.0324 249.7619)" style="fill:#FAFAFA;" width="87.924" height="88.843"/>
				<path style="fill:#F0F0F0;" d="M363.309,147.001h33.415c2.863,0,5.184-2.321,5.184-5.184v-33.873
					c0-2.863-2.321-5.184-5.184-5.184h-33.415c-2.863,0-5.184,2.321-5.184,5.184v33.873
					C358.125,144.68,360.446,147.001,363.309,147.001z"/>
				<path style="fill:#FFFFFF;" d="M383.267,125.413h23.354c2.001,0,3.623-1.622,3.623-3.623V98.117
					c0-2.001-1.622-3.623-3.623-3.623h-23.354c-2.001,0-3.623,1.622-3.623,3.623v23.674
					C379.644,123.791,381.266,125.413,383.267,125.413z"/>
				<path style="fill:#F0F0F0;" d="M363.885,158.619h16.2c1.388,0,2.513-1.125,2.513-2.513v-16.421c0-1.388-1.125-2.513-2.513-2.513
					h-16.2c-1.388,0-2.513,1.125-2.513,2.513v16.421C361.372,157.494,362.497,158.619,363.885,158.619z"/>
				<rect x="331.145" y="80.459" style="fill:#F0F0F0;" width="4.909" height="88.843"/>
			</g>
		</g>
	</g>
</g>
<g id="Background_Simple" style="display:none;">
	<g style="display:inline;">
		<path style="fill:#407BFF;" d="M414.661,280.768c1.658-36.159-58.456-143.205-108.265-181.761
			c-64.601-50.005-139.657-42.302-164.693,28.876c-23.26,66.128,21.296,142.156,88.62,174.001
			C290.273,330.24,414.65,324.882,414.661,280.768z"/>
		<path style="opacity:0.9;fill:#FFFFFF;" d="M414.661,280.768c1.658-36.159-58.456-143.205-108.265-181.761
			c-64.601-50.005-139.657-42.302-164.693,28.876c-23.26,66.128,21.296,142.156,88.62,174.001
			C290.273,330.24,414.65,324.882,414.661,280.768z"/>
	</g>
</g>
<g id="Shadow_1_">
	<ellipse id="_x3C_Path_x3E__375_" style="fill:#F5F5F5;" cx="250" cy="416.238" rx="193.889" ry="11.323"/>
</g>
<g id="Application">
	<g>
		<path style="fill:#407BFF;" d="M383.77,115.133l-1.025-0.064c0.247-3.994-1.096-7.767-3.781-10.623
			c-2.68-2.85-6.351-4.419-10.339-4.419h-18.087V99h18.087c4.273,0,8.211,1.684,11.086,4.742
			C382.593,106.807,384.035,110.852,383.77,115.133z"/>
		
			<rect x="377.766" y="126.465" transform="matrix(0.0606 -0.9982 0.9982 0.0606 232.5993 501.1051)" style="fill:#407BFF;" width="9.519" height="1.026"/>
		<path style="fill:#407BFF;" d="M352.756,359.772H232.31c-6.775,0-11.976-5.543-11.558-12.318l14.35-232.542
			c0.418-6.775,6.303-12.318,13.079-12.318h120.446c6.775,0,11.976,5.543,11.558,12.318l-14.35,232.542
			C365.416,354.229,359.531,359.772,352.756,359.772z"/>
		<path style="opacity:0.2;" d="M280.766,155.561h-26.279c-3.887,0-6.87-3.18-6.63-7.066l1.349-21.864
			c0.24-3.886,3.616-7.066,7.502-7.066h26.279c3.887,0,6.87,3.18,6.63,7.066l-1.349,21.864
			C288.029,152.382,284.653,155.561,280.766,155.561z"/>
		<path style="opacity:0.2;" d="M288.4,339.288c2.181,0,4.059-1.769,4.194-3.95l2.781-45.07c0.135-2.182-1.525-3.95-3.706-3.95
			h-67.144l-3.269,52.97H288.4z"/>
		<g>
			<path style="fill:#407BFF;" d="M218.152,265.95h-20.54c-1.513,0-2.815,1.227-2.909,2.74l-1.431,23.183
				c-0.093,1.513,1.058,2.74,2.571,2.74h20.54c1.513,0,2.816-1.227,2.909-2.74l1.431-23.183
				C220.816,267.176,219.665,265.95,218.152,265.95z"/>
			<path style="opacity:0.4;fill:#FFFFFF;" d="M218.152,265.95h-20.54c-1.513,0-2.815,1.227-2.909,2.74l-1.431,23.183
				c-0.093,1.513,1.058,2.74,2.571,2.74h20.54c1.513,0,2.816-1.227,2.909-2.74l1.431-23.183
				C220.816,267.176,219.665,265.95,218.152,265.95z"/>
		</g>
		<path style="fill:#FFFFFF;" d="M368.373,107.725c1.904,0,3.646,0.737,4.905,2.077c1.263,1.343,1.893,3.135,1.776,5.046
			l-5.281,85.578c-0.101,1.639-1.516,2.972-3.153,2.972h-129c-0.763,0-1.46-0.294-1.961-0.826c-0.503-0.535-0.754-1.252-0.707-2.019
			l5.281-85.578c0.247-3.997,3.699-7.249,7.695-7.249H368.373 M368.373,106.699H247.927c-4.536,0-8.439,3.677-8.719,8.212
			l-5.281,85.578c-0.134,2.173,1.519,3.935,3.692,3.935h129c2.173,0,4.044-1.762,4.178-3.935l5.281-85.578
			C376.358,110.376,372.908,106.699,368.373,106.699L368.373,106.699z"/>
		<path style="fill:#FFFFFF;" d="M303.842,214.484h-65.594c-2.863,0-5.328,2.321-5.504,5.184l-2.707,43.869
			c-0.177,2.863,2.001,5.184,4.865,5.184h65.594c2.863,0,5.328-2.321,5.504-5.184l2.707-43.869
			C308.883,216.805,306.705,214.484,303.842,214.484z"/>
		<path style="fill:#FFFFFF;" d="M284.175,278.118h-65.594c-2.863,0-5.328,2.321-5.504,5.184l-2.707,43.869
			c-0.177,2.863,2.001,5.184,4.865,5.184h65.594c2.863,0,5.328-2.321,5.504-5.184l2.707-43.869
			C289.216,280.439,287.038,278.118,284.175,278.118z"/>
		<path style="opacity:0.2;" d="M336.497,246.991c-2.484,0-4.622,2.014-4.775,4.497l-2.348,38.057
			c-0.153,2.484,1.736,4.498,4.22,4.498h35.537l2.904-47.052H336.497z"/>
		<g>
			<path style="fill:#407BFF;" d="M385.544,238.665h-57.632c-2.516,0-4.681,2.039-4.836,4.555l-2.379,38.543
				c-0.155,2.516,1.758,4.555,4.274,4.555h57.632c2.516,0,4.681-2.039,4.836-4.555l2.379-38.543
				C389.974,240.704,388.06,238.665,385.544,238.665z"/>
			<path style="opacity:0.7;fill:#FFFFFF;" d="M385.544,238.665h-57.632c-2.516,0-4.681,2.039-4.836,4.555l-2.379,38.543
				c-0.155,2.516,1.758,4.555,4.274,4.555h57.632c2.516,0,4.681-2.039,4.836-4.555l2.379-38.543
				C389.974,240.704,388.06,238.665,385.544,238.665z"/>
		</g>
		<g>
			<path style="fill:#407BFF;" d="M428.596,176.388h-34.15c-2.516,0-4.681,2.039-4.836,4.555l-2.378,38.543
				c-0.155,2.516,1.758,4.555,4.274,4.555h34.15c2.516,0,4.681-2.039,4.836-4.555l2.379-38.543
				C433.025,178.427,431.112,176.388,428.596,176.388z"/>
			<path style="opacity:0.7;fill:#FFFFFF;" d="M428.596,176.388h-34.15c-2.516,0-4.681,2.039-4.836,4.555l-2.378,38.543
				c-0.155,2.516,1.758,4.555,4.274,4.555h34.15c2.516,0,4.681-2.039,4.836-4.555l2.379-38.543
				C433.025,178.427,431.112,176.388,428.596,176.388z"/>
		</g>
		<g>
			<path style="fill:#407BFF;" d="M397.545,295.321h-14.211c-1.047,0-1.948,0.849-2.013,1.896l-0.99,16.04
				c-0.065,1.047,0.732,1.896,1.779,1.896h14.211c1.047,0,1.948-0.849,2.013-1.896l0.99-16.04
				C399.388,296.17,398.592,295.321,397.545,295.321z"/>
			<path style="opacity:0.4;fill:#FFFFFF;" d="M397.545,295.321h-14.211c-1.047,0-1.948,0.849-2.013,1.896l-0.99,16.04
				c-0.065,1.047,0.732,1.896,1.779,1.896h14.211c1.047,0,1.948-0.849,2.013-1.896l0.99-16.04
				C399.388,296.17,398.592,295.321,397.545,295.321z"/>
		</g>
		
			<ellipse transform="matrix(0.7179 -0.6961 0.6961 0.7179 -53.5842 266.8003)" style="fill:#407BFF;" cx="302.422" cy="199.52" rx="38.23" ry="35.943"/>
		
			<ellipse transform="matrix(0.7179 -0.6961 0.6961 0.7179 -53.5842 266.8)" style="fill:#FFFFFF;" cx="302.422" cy="199.52" rx="34.755" ry="32.675"/>
		<path style="fill:#407BFF;" d="M315.396,190.474c-0.423,6.857-6.325,12.415-13.182,12.415c-6.857,0-12.072-5.559-11.649-12.415
			c0.423-6.857,6.325-12.415,13.182-12.415C310.603,178.059,315.819,183.617,315.396,190.474z"/>
		<path style="fill:#407BFF;" d="M301.897,207.976c-9.677,0-18.346,3.773-23.106,9.352c4.412,7.264,12.391,12.039,21.786,12.039
			c9.395,0,17.963-4.775,23.272-12.039C319.786,211.749,311.574,207.976,301.897,207.976z"/>
		<g>
			<path style="fill:#FFFFFF;" d="M275.953,150.748h-26.279c-3.886,0-6.87-3.18-6.63-7.066l1.349-21.864
				c0.24-3.886,3.616-7.066,7.502-7.066h26.279c3.887,0,6.87,3.18,6.63,7.066l-1.349,21.864
				C283.216,147.569,279.84,150.748,275.953,150.748z"/>
			<polygon style="fill:#407BFF;" points="271.239,132.75 258,123.911 256.909,141.59 			"/>
			<path style="fill:#FFFFFF;" d="M361.163,134.223h-62.72c-1.651,0-2.919-1.351-2.817-3.002l0.236-3.819
				c0.102-1.651,1.536-3.002,3.187-3.002h62.72c1.651,0,2.919,1.351,2.817,3.002l-0.236,3.819
				C364.248,132.872,362.814,134.223,361.163,134.223z"/>
			<path style="fill:#FFFFFF;" d="M360.145,150.726h-62.72c-1.651,0-2.919-1.351-2.817-3.002l0.236-3.819
				c0.102-1.651,1.536-3.002,3.187-3.002h62.72c1.651,0,2.919,1.351,2.817,3.002l-0.236,3.819
				C363.23,149.375,361.796,150.726,360.145,150.726z"/>
			<path style="fill:#FFFFFF;" d="M380.922,253.754h-50.25c-1.097,0-1.931-0.889-1.863-1.986l0.088-1.425
				c0.068-1.097,1.012-1.986,2.108-1.986h50.25c1.097,0,1.931,0.889,1.863,1.986l-0.088,1.425
				C382.963,252.865,382.019,253.754,380.922,253.754z"/>
			<path style="fill:#FFFFFF;" d="M380.217,265.19h-50.25c-1.097,0-1.931-0.889-1.863-1.986l0.088-1.425
				c0.068-1.097,1.012-1.986,2.108-1.986h50.25c1.097,0,1.931,0.889,1.863,1.986l-0.088,1.425
				C382.257,264.301,381.313,265.19,380.217,265.19z"/>
			<path style="fill:#FFFFFF;" d="M379.511,276.626h-50.25c-1.097,0-1.931-0.889-1.863-1.986l0.088-1.425
				c0.068-1.097,1.012-1.986,2.108-1.986h50.25c1.097,0,1.931,0.889,1.863,1.986l-0.088,1.425
				C381.552,275.737,380.608,276.626,379.511,276.626z"/>
		</g>
		<g>
			<path style="fill:#FFFFFF;" d="M352.072,345.898c-0.164,2.661-2.455,4.819-5.116,4.819c-2.661,0-4.686-2.158-4.522-4.819
				c0.164-2.661,2.455-4.819,5.116-4.819C350.212,341.079,352.236,343.237,352.072,345.898z"/>
			<path style="fill:#FFFFFF;" d="M353.126,328.823c-0.164,2.661-2.455,4.819-5.116,4.819c-2.661,0-4.686-2.158-4.522-4.819
				c0.164-2.661,2.455-4.819,5.116-4.819C351.266,324.004,353.29,326.161,353.126,328.823z"/>
			<path style="fill:#FFFFFF;" d="M354.18,311.746c-0.164,2.661-2.455,4.819-5.116,4.819c-2.661,0-4.686-2.158-4.522-4.819
				c0.164-2.661,2.455-4.819,5.116-4.819C352.319,306.927,354.344,309.085,354.18,311.746z"/>
		</g>
		<g>
			<path style="fill:#FFFFFF;" d="M337.522,345.898c-0.164,2.661-2.455,4.819-5.116,4.819c-2.661,0-4.686-2.158-4.522-4.819
				c0.164-2.661,2.455-4.819,5.116-4.819C335.662,341.079,337.686,343.237,337.522,345.898z"/>
			<path style="fill:#FFFFFF;" d="M338.576,328.823c-0.164,2.661-2.455,4.819-5.116,4.819c-2.661,0-4.686-2.158-4.522-4.819
				c0.164-2.661,2.455-4.819,5.116-4.819C336.716,324.004,338.74,326.161,338.576,328.823z"/>
			<path style="fill:#FFFFFF;" d="M339.63,311.746c-0.164,2.661-2.455,4.819-5.116,4.819c-2.661,0-4.686-2.158-4.522-4.819
				c0.164-2.661,2.455-4.819,5.116-4.819C337.769,306.927,339.794,309.085,339.63,311.746z"/>
		</g>
	</g>
</g>
<g id="Character_1_">
	<g>
		<path style="fill:#7F3E3B;" d="M137.194,201.848l5.65,4.397l-7.462,3.928c0,0-3.493-3.754-1.718-6.946L137.194,201.848z"/>
		<path style="fill:#7F3E3B;" d="M143.091,213.884l-3.428,1.035c-1.091,0.33-2.256-0.203-2.72-1.244l-1.562-3.502l7.462-3.928
			l1.718,4.696C145.009,212.162,144.336,213.508,143.091,213.884z"/>
		<path style="fill:#407BFF;" d="M160.913,161.551l-3.015,1.872c-1.028,0.643-2.052,1.305-3.063,1.982
			c-2.025,1.349-4.044,2.708-6.003,4.121c-3.905,2.823-7.694,5.802-10.897,9.017l-0.603,0.602l-0.151,0.15
			c-0.065,0.066-0.004-0.001-0.015,0.003c0.011-0.035,0.015-0.043,0.012-0.057c-0.012-0.053-0.112,0.076-0.212,0.305
			c-0.219,0.467-0.419,1.341-0.507,2.303c-0.17,1.957-0.088,4.29,0.166,6.626c0.465,4.702,1.444,9.662,2.407,14.475l-5.706,2.162
			c-1.29-2.4-2.348-4.766-3.343-7.246c-0.986-2.469-1.846-5.005-2.568-7.656c-0.677-2.667-1.285-5.409-1.382-8.551
			c-0.035-1.58,0.009-3.267,0.515-5.245c0.27-0.987,0.651-2.053,1.339-3.172c0.174-0.279,0.352-0.554,0.568-0.833l0.287-0.367
			l0.169-0.203l0.679-0.814c0.896-1.11,1.845-2.115,2.789-3.141c0.972-0.973,1.939-1.965,2.943-2.878
			c1.978-1.889,4.061-3.586,6.161-5.257c2.107-1.657,4.27-3.209,6.481-4.688c1.108-0.736,2.225-1.455,3.357-2.16
			c1.143-0.724,2.241-1.363,3.528-2.074L160.913,161.551z"/>
		<path style="fill:#263238;" d="M138.569,201.759c-1.451,0.751-4.656,1.679-6.065,2.095c-0.344,0.102-0.559,0.441-0.511,0.796
			c0.131,0.977,0.327,1.68,0.866,1.743c0.647,0.075,6.525-2.006,6.943-2.766c0.235-0.426-0.01-1.071-0.27-1.555
			C139.345,201.726,138.919,201.578,138.569,201.759z"/>
		<g>
			<path style="fill:#407BFF;" d="M166.816,197.462l-11.966-29.484c-0.882-2.172-3.401-3.327-5.627-2.579l-34.111,11.452
				c-2.226,0.748-3.317,3.114-2.435,5.286l11.966,29.484c0.882,2.172,3.401,3.327,5.627,2.579l34.111-11.452
				C166.607,202.001,167.698,199.634,166.816,197.462z"/>
			<path style="opacity:0.7;fill:#FFFFFF;" d="M166.816,197.462l-11.966-29.484c-0.882-2.172-3.401-3.327-5.627-2.579
				l-34.111,11.452c-2.226,0.748-3.317,3.114-2.435,5.286l11.966,29.484c0.882,2.172,3.401,3.327,5.627,2.579l34.111-11.452
				C166.607,202.001,167.698,199.634,166.816,197.462z"/>
		</g>
		<path style="fill:#263238;" d="M192.681,129.791c-0.146,0.591,0.049,1.146,0.435,1.242c0.386,0.095,0.817-0.306,0.963-0.897
			c0.146-0.59-0.049-1.146-0.435-1.242C193.258,128.799,192.827,129.201,192.681,129.791z"/>
		<path style="fill:#630F0F;" d="M192.676,130.924c0,0,0.502,3.738,1.575,5.747c-1.285,0.717-2.952-0.167-2.952-0.167
			L192.676,130.924z"/>
		<path style="fill:#263238;" d="M191.396,126.002c0.07,0.017,0.146,0.014,0.219-0.016c1.478-0.594,2.564,0.148,2.576,0.155
			c0.161,0.113,0.384,0.074,0.497-0.088c0.113-0.162,0.074-0.384-0.088-0.498c-0.057-0.04-1.418-0.97-3.252-0.233
			c-0.183,0.074-0.272,0.282-0.198,0.465C191.194,125.9,191.288,125.976,191.396,126.002z"/>
		<path style="fill:#7F3E3B;" d="M171.941,131.896c-0.272,5.615-1.646,15.688-6.276,18.337c0,0,0.123,5.795,10.076,8.251
			c10.944,2.701,6.571-4.142,6.571-4.142c-5.621-2.901-4.373-7.294-2.305-11.199L171.941,131.896z"/>
		<path style="fill:#263238;" d="M163.771,151.744c-0.36-1.914-0.738-4.095,1.201-4.271c2.133-0.193,13.063,1.77,16.458,3.959
			c3.395,2.189,1.482,5.418,1.482,5.418L163.771,151.744z"/>
		<path style="fill:#407BFF;" d="M111.877,394.458c0.59,0.5,1.237,0.895,1.704,0.793c0.196-0.043,0.45-0.19,0.543-0.65
			c0.049-0.242-0.004-0.47-0.158-0.68c-0.672-0.912-3.183-1.17-3.289-1.18c-0.07-0.007-0.138,0.028-0.173,0.089
			c-0.035,0.061-0.031,0.137,0.01,0.194C110.749,393.344,111.284,393.955,111.877,394.458z M113.526,393.973
			c0.06,0.051,0.111,0.104,0.153,0.16c0.093,0.126,0.124,0.256,0.096,0.397c-0.067,0.328-0.219,0.362-0.27,0.373
			c-0.52,0.113-1.699-0.877-2.435-1.751C111.824,393.266,113.004,393.529,113.526,393.973z"/>
		<path style="fill:#407BFF;" d="M110.543,393.054c0.022,0.019,0.049,0.032,0.079,0.039c0.869,0.182,3.088-0.101,3.511-0.846
			c0.076-0.135,0.161-0.409-0.131-0.725c-0.189-0.205-0.434-0.312-0.728-0.317c-1.131-0.021-2.677,1.522-2.742,1.587
			c-0.046,0.047-0.064,0.114-0.045,0.177C110.498,393.003,110.517,393.032,110.543,393.054z M113.681,391.708
			c0.02,0.017,0.04,0.036,0.059,0.056c0.159,0.172,0.105,0.266,0.082,0.307c-0.25,0.44-1.79,0.77-2.763,0.716
			c0.479-0.428,1.483-1.239,2.208-1.225C113.434,391.565,113.57,391.613,113.681,391.708z"/>
		<path style="fill:#407BFF;" d="M168.366,408.925c0.967,0,1.888-0.133,2.156-0.568c0.094-0.152,0.154-0.411-0.095-0.781
			c-0.14-0.207-0.345-0.348-0.61-0.418c-1.289-0.341-3.77,1.16-3.875,1.224c-0.061,0.037-0.088,0.11-0.068,0.184
			c0.02,0.073,0.082,0.132,0.156,0.146C166.521,408.809,167.464,408.925,168.366,408.925z M169.41,407.462
			c0.126,0,0.243,0.013,0.35,0.041c0.169,0.045,0.292,0.127,0.376,0.25c0.15,0.222,0.115,0.332,0.076,0.395
			c-0.3,0.487-2.206,0.498-3.628,0.3C167.244,408.09,168.528,407.462,169.41,407.462z"/>
		<path style="fill:#407BFF;" d="M166.065,408.717c0.025,0,0.049-0.005,0.072-0.016c0.868-0.408,2.502-2.039,2.276-2.892
			c-0.053-0.2-0.221-0.449-0.717-0.499c-0.368-0.037-0.691,0.066-0.959,0.306c-0.878,0.788-0.871,2.819-0.87,2.905
			c0.001,0.063,0.035,0.125,0.09,0.162C165.991,408.705,166.028,408.717,166.065,408.717z M167.589,405.66
			c0.035,0,0.071,0.002,0.108,0.005c0.325,0.033,0.358,0.159,0.369,0.201c0.136,0.512-0.957,1.793-1.828,2.351
			c0.036-0.593,0.179-1.809,0.755-2.326C167.167,405.736,167.362,405.66,167.589,405.66z"/>
		<polygon style="fill:#7F3E3B;" points="157.853,408.538 165.394,408.538 166.145,391.074 158.604,391.074 		"/>
		<polygon style="fill:#7F3E3B;" points="102.932,390.852 110.228,392.758 118.309,376.819 111.013,374.913 		"/>
		<path style="fill:#263238;" d="M110.795,391.888l-6.46-5.482c-0.235-0.199-0.577-0.209-0.823-0.023l-5.473,4.147
			c-0.568,0.43-0.577,1.286-0.026,1.737c2.288,1.875,3.496,2.673,6.337,5.083c1.748,1.483,5.475,5.726,7.733,7.944
			c2.208,2.17,4.746,0.276,4.021-0.835c-3.254-4.979-4.339-8.948-4.676-11.427C111.368,392.587,111.139,392.18,110.795,391.888z"/>
		<path style="fill:#263238;" d="M165.156,407.665l-8.235,0c-0.308,0-0.553,0.214-0.589,0.515l-0.796,6.703
			c-0.082,0.695,0.513,1.353,1.224,1.341c2.966-0.05,7.24-0.225,10.974-0.225c4.366,0,5.103,0.238,10.223,0.238
			c3.096,0,3.631-3.13,2.306-3.413c-6.033-1.29-7.806-1.429-13.229-4.572C166.444,407.911,165.807,407.665,165.156,407.665z"/>
		<path style="fill:#407BFF;" d="M193.33,164.101c-0.576,7.611-3.435,23.781-14.332,56.62l-39.639-7.465
			c0.754-5.301,7.881-27.635,9.505-52.813c0.452-7.003,6.746-12.208,13.7-11.265c0.065,0.009,0.131,0.018,0.196,0.027
			c5.111,0.71,12.474,1.929,16.85,3.174c2.758,0.785,5.971,2.076,8.574,3.211C191.534,157.05,193.606,160.456,193.33,164.101z"/>
		<path style="opacity:0.2;" d="M185.805,168.713c-0.267,4.281,1.335,13.365,2.731,20.274c1.283-4.948,2.248-9.136,2.956-12.678
			L185.805,168.713z"/>
		<path style="fill:#407BFF;" d="M193.19,161.777c0.95,2.363,1.978,4.931,3.043,7.37c1.084,2.456,2.151,4.915,3.305,7.315
			c2.275,4.794,4.727,9.528,7.537,13.59c0.7,1.001,1.416,1.983,2.156,2.833l0.137,0.166c-0.013-0.014-0.029-0.025-0.046-0.034
			c-0.04-0.017-0.047-0.027-0.074-0.027c-0.02-0.003-0.028,0.027,0.031,0.07c0.092,0.088,0.366,0.229,0.72,0.357
			c0.722,0.259,1.781,0.439,2.906,0.518c1.133,0.082,2.358,0.117,3.613,0.072c5.038-0.16,10.499-1.013,15.77-1.868l1.965,5.777
			c-2.667,1.312-5.292,2.375-8.057,3.327c-2.752,0.95-5.582,1.754-8.585,2.313c-1.503,0.272-3.053,0.505-4.697,0.593
			c-1.648,0.079-3.381,0.072-5.366-0.297c-0.995-0.193-2.055-0.473-3.201-1.019c-0.566-0.261-1.16-0.608-1.742-1.017
			c-0.294-0.221-0.584-0.436-0.868-0.7l-0.421-0.395l-0.214-0.219c-1.173-1.165-2.188-2.36-3.173-3.565
			c-3.845-4.845-6.744-9.906-9.412-15.046c-1.298-2.583-2.552-5.171-3.676-7.811c-1.138-2.659-2.221-5.229-3.218-8.068
			L193.19,161.777z"/>
		<path style="opacity:0.2;" d="M264.618,186.769l-14.231-2.837c-1.05-0.209-2.124,0.462-2.398,1.499l-4.201,15.891
			c-0.274,1.037,0.355,2.048,1.405,2.257l14.231,2.837c1.05,0.209,2.124-0.462,2.398-1.499l4.201-15.891
			C266.297,187.989,265.668,186.979,264.618,186.769z"/>
		<path style="fill:#FFFFFF;" d="M259.667,179.47l-14.165-3.149c-1.045-0.232-2.133,0.415-2.43,1.446l-4.549,15.795
			c-0.297,1.031,0.31,2.055,1.355,2.287l14.165,3.149c1.045,0.232,2.133-0.415,2.43-1.446l4.549-15.795
			C261.319,180.726,260.713,179.702,259.667,179.47z"/>
		<path style="fill:#7F3E3B;" d="M230.989,193.262l4.481-6.576l7.106,6.504c0,0-3.694,5.035-9.177,4.733L230.989,193.262z"/>
		<path style="fill:#263238;" d="M229.538,192.977c0.787,1.431,1.794,4.613,2.245,6.011c0.11,0.341,0.455,0.548,0.809,0.491
			c0.973-0.155,1.672-0.369,1.721-0.909c0.059-0.649-2.167-6.473-2.937-6.872c-0.432-0.224-1.071,0.037-1.548,0.309
			C229.485,192.202,229.348,192.631,229.538,192.977z"/>
		<path style="fill:#7F3E3B;" d="M244.177,185.681l0.882,1.709c0.718,1.391,0.423,3.09-0.722,4.158l-1.761,1.643l-7.106-6.504
			l3.738-2.358C240.941,183.235,243.238,183.86,244.177,185.681z"/>
		<g>
			<polygon style="opacity:0.2;" points="166.144,391.079 165.723,400.898 158.179,400.898 158.6,391.079 			"/>
			<polygon style="opacity:0.2;" points="111.009,374.917 118.308,376.823 113.83,385.647 106.84,383.132 			"/>
		</g>
		<path style="fill:#7F3E3B;" d="M173.293,123.678c-1.345,7.363-2.506,11.603,0.238,16.23c4.128,6.959,13.9,5.848,17.417-0.965
			c3.166-6.132,4.833-17.142-1.554-21.78C183.103,112.593,174.638,116.315,173.293,123.678z"/>
		<path style="fill:#263238;" d="M185.908,130.89c3.756,1.453,6.003-3.938,5.034-5.883c1.241-0.751,6.191-1.9,5.616-5.701
			c-0.575-3.801-4.319-4.897-7.056-9.902c-0.928,0.486-0.678,3.538-0.678,3.538s-2.254-3.977-8.087-3.933
			c-5.833,0.044-8.041-2.342-8.041-2.342s0.44,3.801,2.605,4.729c-3.27,0.928-3.27,6.054-7.911,6.629
			c1.061,1.989,3.647,1.944,3.647,1.944s-2.675,2.317-2.145,5.224c0.53,2.907,3.624,9.89-0.088,12.32
			C176.848,140.43,187.499,137.189,185.908,130.89z"/>
		<path style="fill:#7F3E3B;" d="M184.164,129.692c-0.463,1.905-0.135,3.932,0.556,5.404c1.039,2.214,3.01,1.64,3.937-0.383
			c0.834-1.821,1.298-5.168-0.33-6.713C186.723,126.478,184.694,127.514,184.164,129.692z"/>
		<g>
			<path style="fill:#407BFF;" d="M164.936,218.073c0,0-10.245,56.272-14.943,77.863c-5.145,23.644-31.327,86.903-31.327,86.903
				l-13.138-4.237c0,0,16.437-60.243,23.85-83.991c1.548-25.346,4.699-65.446,9.98-81.356L164.936,218.073z"/>
			<path style="opacity:0.5;" d="M164.936,218.073c0,0-10.245,56.272-14.943,77.863c-5.145,23.644-31.327,86.903-31.327,86.903
				l-13.138-4.237c0,0,16.437-60.243,23.85-83.991c1.548-25.346,4.699-65.446,9.98-81.356L164.936,218.073z"/>
		</g>
		<path style="fill:#407BFF;" d="M121.457,380.058c0.056,0.018-3.014,4.591-3.014,4.591l-14.76-4.861l1.751-4.407L121.457,380.058z"
			/>
		<path style="opacity:0.3;" d="M160.286,237.747c-9.598,1.54-8.9,30.036-7.771,45.948c2.792-13.91,6.241-32.212,8.787-45.948
			C160.819,237.727,160.45,237.717,160.286,237.747z"/>
		<g>
			<path style="fill:#407BFF;" d="M178.998,220.721c0,0,2.134,52.377,1.314,75.374c-0.853,23.921-11.743,102.243-11.743,102.243
				h-12.775c0,0-0.275-75.288,2.671-100.29c-0.62-25.611-5.523-82.234-5.523-82.234L178.998,220.721z"/>
			<path style="opacity:0.5;" d="M178.998,220.721c0,0,2.134,52.377,1.314,75.374c-0.853,23.921-11.743,102.243-11.743,102.243
				h-12.775c0,0-0.275-75.288,2.671-100.29c-0.62-25.611-5.523-82.234-5.523-82.234L178.998,220.721z"/>
		</g>
		<path style="fill:#407BFF;" d="M171.027,393.249c0.059,0-0.721,5.304-0.721,5.304h-15.54l-0.42-4.733L171.027,393.249z"/>
		<path style="fill:#263238;" d="M139.359,211.814c-1.307-0.06-1.397,3.08-0.969,3.999c0.428,0.919,6.159,1.48,21.443,4.907
			c15.284,3.426,19.062,3.612,19.533,3.398c0.47-0.214,1.454-4.448,0.513-4.577c-0.941-0.128-16.634-2.652-23.287-4.192
			C149.938,213.81,141.224,211.9,139.359,211.814z"/>
	</g>
</g>
</svg>
